<?xml version="1.0" encoding="UTF-8" standalone="no"?>
<!DOCTYPE svg PUBLIC "-//W3C//DTD SVG 1.1//EN"
 "http://www.w3.org/Graphics/SVG/1.1/DTD/svg11.dtd">
<!-- Generated by graphviz version 14.0.4 (20251115.1723)
 -->
<!-- Title: src/application/AddProductUseCase.java Pages: 1 -->
<svg width="721pt" height="108pt"
 viewBox="0.00 0.00 721.00 108.00" xmlns="http://www.w3.org/2000/svg" xmlns:xlink="http://www.w3.org/1999/xlink">
<g id="graph0" class="graph" transform="scale(1 1) rotate(0) translate(4 104)">
<title>src/application/AddProductUseCase.java</title>
<!-- Node1 -->
<g id="Node000001" class="node">
<title>Node1</title>
<g id="a_Node000001"><a xlink:title=" ">
<polygon fill="#999999" stroke="#666666" points="405.5,-100 272.5,-100 272.5,-68 405.5,-68 405.5,-100"/>
<text xml:space="preserve" text-anchor="start" x="280.5" y="-86.5" font-family="Helvetica,sans-Serif" font-size="10.00">src/application/AddProduct</text>
<text xml:space="preserve" text-anchor="middle" x="339" y="-74.5" font-family="Helvetica,sans-Serif" font-size="10.00">UseCase.java</text>
</a>
</g>
</g>
<!-- Node2 -->
<g id="Node000002" class="node">
<title>Node2</title>
<g id="a_Node000002"><a xlink:title=" ">
<polygon fill="#e0e0e0" stroke="#999999" points="124,-32 0,-32 0,0 124,0 124,-32"/>
<text xml:space="preserve" text-anchor="start" x="8" y="-18.5" font-family="Helvetica,sans-Serif" font-size="10.00">application.ports.Product</text>
<text xml:space="preserve" text-anchor="middle" x="62" y="-6.5" font-family="Helvetica,sans-Serif" font-size="10.00">Repository</text>
</a>
</g>
</g>
<!-- Node1&#45;&gt;Node2 -->
<g id="edge1_Node000001_Node000002" class="edge">
<title>Node1&#45;&gt;Node2</title>
<g id="a_edge1_Node000001_Node000002"><a xlink:title=" ">
<path fill="none" stroke="#63b8ff" d="M274.06,-67.53C232.43,-57.61 178.31,-44.71 135.16,-34.43"/>
<polygon fill="#63b8ff" stroke="#63b8ff" points="136.17,-31.07 125.63,-32.16 134.55,-37.88 136.17,-31.07"/>
</a>
</g>
</g>
<!-- Node3 -->
<g id="Node000003" class="node">
<title>Node3</title>
<g id="a_Node000003"><a xlink:title=" ">
<polygon fill="#e0e0e0" stroke="#999999" points="252.25,-26 141.75,-26 141.75,-6 252.25,-6 252.25,-26"/>
<text xml:space="preserve" text-anchor="middle" x="197" y="-12.5" font-family="Helvetica,sans-Serif" font-size="10.00">domain.catalog.Brand</text>
</a>
</g>
</g>
<!-- Node1&#45;&gt;Node3 -->
<g id="edge2_Node000001_Node000003" class="edge">
<title>Node1&#45;&gt;Node3</title>
<g id="a_edge2_Node000001_Node000003"><a xlink:title=" ">
<path fill="none" stroke="#63b8ff" d="M305.71,-67.53C282.07,-56.54 250.58,-41.9 227.58,-31.21"/>
<polygon fill="#63b8ff" stroke="#63b8ff" points="229.27,-28.14 218.73,-27.1 226.32,-34.49 229.27,-28.14"/>
</a>
</g>
</g>
<!-- Node4 -->
<g id="Node000004" class="node">
<title>Node4</title>
<g id="a_Node000004"><a xlink:title=" ">
<polygon fill="#e0e0e0" stroke="#999999" points="407.38,-26 270.62,-26 270.62,-6 407.38,-6 407.38,-26"/>
<text xml:space="preserve" text-anchor="middle" x="339" y="-12.5" font-family="Helvetica,sans-Serif" font-size="10.00">domain.catalog.ProductLine</text>
</a>
</g>
</g>
<!-- Node1&#45;&gt;Node4 -->
<g id="edge3_Node000001_Node000004" class="edge">
<title>Node1&#45;&gt;Node4</title>
<g id="a_edge3_Node000001_Node000004"><a xlink:title=" ">
<path fill="none" stroke="#63b8ff" d="M339,-67.69C339,-58.8 339,-47.46 339,-37.77"/>
<polygon fill="#63b8ff" stroke="#63b8ff" points="342.5,-37.83 339,-27.83 335.5,-37.83 342.5,-37.83"/>
</a>
</g>
</g>
<!-- Node5 -->
<g id="Node000005" class="node">
<title>Node5</title>
<g id="a_Node000005"><a xlink:title=" ">
<polygon fill="#e0e0e0" stroke="#999999" points="544.75,-26 425.25,-26 425.25,-6 544.75,-6 544.75,-26"/>
<text xml:space="preserve" text-anchor="middle" x="485" y="-12.5" font-family="Helvetica,sans-Serif" font-size="10.00">domain.product.Product</text>
</a>
</g>
</g>
<!-- Node1&#45;&gt;Node5 -->
<g id="edge4_Node000001_Node000005" class="edge">
<title>Node1&#45;&gt;Node5</title>
<g id="a_edge4_Node000001_Node000005"><a xlink:title=" ">
<path fill="none" stroke="#63b8ff" d="M373.23,-67.53C397.64,-56.49 430.2,-41.77 453.88,-31.07"/>
<polygon fill="#63b8ff" stroke="#63b8ff" points="455.02,-34.39 462.69,-27.08 452.14,-28.01 455.02,-34.39"/>
</a>
</g>
</g>
<!-- Node6 -->
<g id="Node000006" class="node">
<title>Node6</title>
<g id="a_Node000006"><a xlink:title=" ">
<polygon fill="#e0e0e0" stroke="#999999" points="712.75,-26 563.25,-26 563.25,-6 712.75,-6 712.75,-26"/>
<text xml:space="preserve" text-anchor="middle" x="638" y="-12.5" font-family="Helvetica,sans-Serif" font-size="10.00">domain.product.SimpleProduct</text>
</a>
</g>
</g>
<!-- Node1&#45;&gt;Node6 -->
<g id="edge5_Node000001_Node000006" class="edge">
<title>Node1&#45;&gt;Node6</title>
<g id="a_edge5_Node000001_Node000006"><a xlink:title=" ">
<path fill="none" stroke="#63b8ff" d="M405.73,-68.27C459.38,-56.43 533.8,-40 583.81,-28.96"/>
<polygon fill="#63b8ff" stroke="#63b8ff" points="584.54,-32.38 593.55,-26.81 583.03,-25.55 584.54,-32.38"/>
</a>
</g>
</g>
</g>
</svg>
