<?xml version="1.0" encoding="UTF-8" standalone="no"?>
<!DOCTYPE svg PUBLIC "-//W3C//DTD SVG 1.1//EN"
 "http://www.w3.org/Graphics/SVG/1.1/DTD/svg11.dtd">
<!-- Generated by graphviz version 14.0.4 (20251115.1723)
 -->
<!-- Title: src/presentation/ConsoleInterface.java Pages: 1 -->
<svg width="1248pt" height="108pt"
 viewBox="0.00 0.00 1248.00 108.00" xmlns="http://www.w3.org/2000/svg" xmlns:xlink="http://www.w3.org/1999/xlink">
<g id="graph0" class="graph" transform="scale(1 1) rotate(0) translate(4 104)">
<title>src/presentation/ConsoleInterface.java</title>
<!-- Node1 -->
<g id="Node000001" class="node">
<title>Node1</title>
<g id="a_Node000001"><a xlink:title=" ">
<polygon fill="#999999" stroke="#666666" points="691,-100 566.25,-100 566.25,-68 691,-68 691,-100"/>
<text xml:space="preserve" text-anchor="start" x="574.25" y="-86.5" font-family="Helvetica,sans-Serif" font-size="10.00">src/presentation/Console</text>
<text xml:space="preserve" text-anchor="middle" x="628.62" y="-74.5" font-family="Helvetica,sans-Serif" font-size="10.00">Interface.java</text>
</a>
</g>
</g>
<!-- Node2 -->
<g id="Node000002" class="node">
<title>Node2</title>
<g id="a_Node000002"><a xlink:title=" ">
<polygon fill="#e0e0e0" stroke="#999999" points="69.25,-26 0,-26 0,-6 69.25,-6 69.25,-26"/>
<text xml:space="preserve" text-anchor="middle" x="34.62" y="-12.5" font-family="Helvetica,sans-Serif" font-size="10.00">application.*</text>
</a>
</g>
</g>
<!-- Node1&#45;&gt;Node2 -->
<g id="edge1_Node000001_Node000002" class="edge">
<title>Node1&#45;&gt;Node2</title>
<g id="a_edge1_Node000001_Node000002"><a xlink:title=" ">
<path fill="none" stroke="#63b8ff" d="M566.04,-81.98C463.22,-79.25 252.58,-69.17 78.62,-32 75.79,-31.4 72.89,-30.66 69.99,-29.86"/>
<polygon fill="#63b8ff" stroke="#63b8ff" points="71.04,-26.52 60.45,-26.9 68.97,-33.2 71.04,-26.52"/>
</a>
</g>
</g>
<!-- Node3 -->
<g id="Node000003" class="node">
<title>Node3</title>
<g id="a_Node000003"><a xlink:title=" ">
<polygon fill="#e0e0e0" stroke="#999999" points="211.62,-32 87.62,-32 87.62,0 211.62,0 211.62,-32"/>
<text xml:space="preserve" text-anchor="start" x="95.62" y="-18.5" font-family="Helvetica,sans-Serif" font-size="10.00">application.ports.Product</text>
<text xml:space="preserve" text-anchor="middle" x="149.62" y="-6.5" font-family="Helvetica,sans-Serif" font-size="10.00">Repository</text>
</a>
</g>
</g>
<!-- Node1&#45;&gt;Node3 -->
<g id="edge2_Node000001_Node000003" class="edge">
<title>Node1&#45;&gt;Node3</title>
<g id="a_edge2_Node000001_Node000003"><a xlink:title=" ">
<path fill="none" stroke="#63b8ff" d="M565.83,-76.8C487.79,-68.73 350.31,-53.32 223.01,-32.32"/>
<polygon fill="#63b8ff" stroke="#63b8ff" points="223.84,-28.91 213.4,-30.72 222.69,-35.81 223.84,-28.91"/>
</a>
</g>
</g>
<!-- Node4 -->
<g id="Node000004" class="node">
<title>Node4</title>
<g id="a_Node000004"><a xlink:title=" ">
<polygon fill="#e0e0e0" stroke="#999999" points="339.88,-26 229.38,-26 229.38,-6 339.88,-6 339.88,-26"/>
<text xml:space="preserve" text-anchor="middle" x="284.62" y="-12.5" font-family="Helvetica,sans-Serif" font-size="10.00">domain.catalog.Brand</text>
</a>
</g>
</g>
<!-- Node1&#45;&gt;Node4 -->
<g id="edge3_Node000001_Node000004" class="edge">
<title>Node1&#45;&gt;Node4</title>
<g id="a_edge3_Node000001_Node000004"><a xlink:title=" ">
<path fill="none" stroke="#63b8ff" d="M565.86,-72.38C509.21,-62.59 423.64,-47.3 349.62,-32 345.03,-31.05 340.26,-30.03 335.49,-28.97"/>
<polygon fill="#63b8ff" stroke="#63b8ff" points="336.44,-25.6 325.91,-26.82 334.9,-32.43 336.44,-25.6"/>
</a>
</g>
</g>
<!-- Node5 -->
<g id="Node000005" class="node">
<title>Node5</title>
<g id="a_Node000005"><a xlink:title=" ">
<polygon fill="#e0e0e0" stroke="#999999" points="477,-26 358.25,-26 358.25,-6 477,-6 477,-26"/>
<text xml:space="preserve" text-anchor="middle" x="417.62" y="-12.5" font-family="Helvetica,sans-Serif" font-size="10.00">domain.catalog.Catalog</text>
</a>
</g>
</g>
<!-- Node1&#45;&gt;Node5 -->
<g id="edge4_Node000001_Node000005" class="edge">
<title>Node1&#45;&gt;Node5</title>
<g id="a_edge4_Node000001_Node000005"><a xlink:title=" ">
<path fill="none" stroke="#63b8ff" d="M579.15,-67.53C542.44,-56.04 492.98,-40.57 458.5,-29.79"/>
<polygon fill="#63b8ff" stroke="#63b8ff" points="459.9,-26.56 449.31,-26.91 457.81,-33.24 459.9,-26.56"/>
</a>
</g>
</g>
<!-- Node6 -->
<g id="Node000006" class="node">
<title>Node6</title>
<g id="a_Node000006"><a xlink:title=" ">
<polygon fill="#e0e0e0" stroke="#999999" points="632,-26 495.25,-26 495.25,-6 632,-6 632,-26"/>
<text xml:space="preserve" text-anchor="middle" x="563.62" y="-12.5" font-family="Helvetica,sans-Serif" font-size="10.00">domain.catalog.ProductLine</text>
</a>
</g>
</g>
<!-- Node1&#45;&gt;Node6 -->
<g id="edge5_Node000001_Node000006" class="edge">
<title>Node1&#45;&gt;Node6</title>
<g id="a_edge5_Node000001_Node000006"><a xlink:title=" ">
<path fill="none" stroke="#63b8ff" d="M613.55,-67.69C603.7,-57.7 590.83,-44.63 580.62,-34.26"/>
<polygon fill="#63b8ff" stroke="#63b8ff" points="583.37,-32.06 573.86,-27.39 578.39,-36.98 583.37,-32.06"/>
</a>
</g>
</g>
<!-- Node7 -->
<g id="Node000007" class="node">
<title>Node7</title>
<g id="a_Node000007"><a xlink:title=" ">
<polygon fill="#e0e0e0" stroke="#999999" points="739.38,-26 649.88,-26 649.88,-6 739.38,-6 739.38,-26"/>
<text xml:space="preserve" text-anchor="middle" x="694.62" y="-12.5" font-family="Helvetica,sans-Serif" font-size="10.00">domain.product.*</text>
</a>
</g>
</g>
<!-- Node1&#45;&gt;Node7 -->
<g id="edge6_Node000001_Node000007" class="edge">
<title>Node1&#45;&gt;Node7</title>
<g id="a_edge6_Node000001_Node000007"><a xlink:title=" ">
<path fill="none" stroke="#63b8ff" d="M643.93,-67.69C653.93,-57.7 667,-44.63 677.37,-34.26"/>
<polygon fill="#63b8ff" stroke="#63b8ff" points="679.64,-36.93 684.24,-27.39 674.69,-31.98 679.64,-36.93"/>
</a>
</g>
</g>
<!-- Node8 -->
<g id="Node000008" class="node">
<title>Node8</title>
<g id="a_Node000008"><a xlink:title=" ">
<polygon fill="#e0e0e0" stroke="#999999" points="910.25,-32 757,-32 757,0 910.25,0 910.25,-32"/>
<text xml:space="preserve" text-anchor="start" x="765" y="-18.5" font-family="Helvetica,sans-Serif" font-size="10.00">infrastructure.InMemoryProduct</text>
<text xml:space="preserve" text-anchor="middle" x="833.62" y="-6.5" font-family="Helvetica,sans-Serif" font-size="10.00">Repository</text>
</a>
</g>
</g>
<!-- Node1&#45;&gt;Node8 -->
<g id="edge7_Node000001_Node000008" class="edge">
<title>Node1&#45;&gt;Node8</title>
<g id="a_edge7_Node000001_Node000008"><a xlink:title=" ">
<path fill="none" stroke="#63b8ff" d="M676.69,-67.53C706.01,-58.09 743.71,-45.95 774.81,-35.94"/>
<polygon fill="#63b8ff" stroke="#63b8ff" points="775.62,-39.35 784.07,-32.96 773.48,-32.69 775.62,-39.35"/>
</a>
</g>
</g>
<!-- Node9 -->
<g id="Node000009" class="node">
<title>Node9</title>
<g id="a_Node000009"><a xlink:title=" ">
<polygon fill="#e0e0e0" stroke="#999999" points="1046.62,-32 928.62,-32 928.62,0 1046.62,0 1046.62,-32"/>
<text xml:space="preserve" text-anchor="start" x="936.62" y="-18.5" font-family="Helvetica,sans-Serif" font-size="10.00">infrastructure.ProductId</text>
<text xml:space="preserve" text-anchor="middle" x="987.62" y="-6.5" font-family="Helvetica,sans-Serif" font-size="10.00">Generator</text>
</a>
</g>
</g>
<!-- Node1&#45;&gt;Node9 -->
<g id="edge8_Node000001_Node000009" class="edge">
<title>Node1&#45;&gt;Node9</title>
<g id="a_edge8_Node000001_Node000009"><a xlink:title=" ">
<path fill="none" stroke="#63b8ff" d="M691.5,-72.79C748,-63.44 833.52,-48.83 917.08,-32.46"/>
<polygon fill="#63b8ff" stroke="#63b8ff" points="917.7,-35.9 926.83,-30.53 916.35,-29.03 917.7,-35.9"/>
</a>
</g>
</g>
<!-- Node10 -->
<g id="Node000010" class="node">
<title>Node10</title>
<g id="a_Node000010"><a xlink:title=" ">
<polygon fill="#e0e0e0" stroke="#999999" points="1132.88,-26 1064.38,-26 1064.38,-6 1132.88,-6 1132.88,-26"/>
<text xml:space="preserve" text-anchor="middle" x="1098.62" y="-12.5" font-family="Helvetica,sans-Serif" font-size="10.00">java.util.List</text>
</a>
</g>
</g>
<!-- Node1&#45;&gt;Node10 -->
<g id="edge9_Node000001_Node000010" class="edge">
<title>Node1&#45;&gt;Node10</title>
<g id="a_edge9_Node000001_Node000010"><a xlink:title=" ">
<path fill="none" stroke="#63b8ff" d="M691.23,-79.78C775.1,-74.5 928.15,-61.48 1055.62,-32 1058.39,-31.36 1061.22,-30.61 1064.05,-29.78"/>
<polygon fill="#63b8ff" stroke="#63b8ff" points="1064.89,-33.19 1073.35,-26.81 1062.76,-26.52 1064.89,-33.19"/>
</a>
</g>
</g>
<!-- Node11 -->
<g id="Node000011" class="node">
<title>Node11</title>
<g id="a_Node000011"><a xlink:title=" ">
<polygon fill="#e0e0e0" stroke="#999999" points="1240,-26 1151.25,-26 1151.25,-6 1240,-6 1240,-26"/>
<text xml:space="preserve" text-anchor="middle" x="1195.62" y="-12.5" font-family="Helvetica,sans-Serif" font-size="10.00">java.util.Scanner</text>
</a>
</g>
</g>
<!-- Node1&#45;&gt;Node11 -->
<g id="edge10_Node000001_Node000011" class="edge">
<title>Node1&#45;&gt;Node11</title>
<g id="a_edge10_Node000001_Node000011"><a xlink:title=" ">
<path fill="none" stroke="#63b8ff" d="M691.1,-80.25C788.19,-75.21 980.85,-62.09 1141.62,-32 1145.69,-31.24 1149.89,-30.32 1154.08,-29.31"/>
<polygon fill="#63b8ff" stroke="#63b8ff" points="1154.73,-32.76 1163.53,-26.87 1152.98,-25.98 1154.73,-32.76"/>
</a>
</g>
</g>
</g>
</svg>
