<?xml version="1.0" encoding="UTF-8" standalone="no"?>
<!DOCTYPE svg PUBLIC "-//W3C//DTD SVG 1.1//EN"
 "http://www.w3.org/Graphics/SVG/1.1/DTD/svg11.dtd">
<!-- Generated by graphviz version 14.0.4 (20251115.1723)
 -->
<!-- Title: src/application/ports/ProductRepository.java Pages: 1 -->
<svg width="214pt" height="96pt"
 viewBox="0.00 0.00 214.00 96.00" xmlns="http://www.w3.org/2000/svg" xmlns:xlink="http://www.w3.org/1999/xlink">
<g id="graph0" class="graph" transform="scale(1 1) rotate(0) translate(4 92)">
<title>src/application/ports/ProductRepository.java</title>
<!-- Node1 -->
<g id="Node000001" class="node">
<title>Node1</title>
<g id="a_Node000001"><a xlink:title=" ">
<polygon fill="#999999" stroke="#666666" points="175.88,-88 55.62,-88 55.62,-56 175.88,-56 175.88,-88"/>
<text xml:space="preserve" text-anchor="start" x="63.62" y="-74.5" font-family="Helvetica,sans-Serif" font-size="10.00">src/application/ports</text>
<text xml:space="preserve" text-anchor="middle" x="115.75" y="-62.5" font-family="Helvetica,sans-Serif" font-size="10.00">/ProductRepository.java</text>
</a>
</g>
</g>
<!-- Node2 -->
<g id="Node000002" class="node">
<title>Node2</title>
<g id="a_Node000002"><a xlink:title=" ">
<polygon fill="#e0e0e0" stroke="#999999" points="119.5,-20 0,-20 0,0 119.5,0 119.5,-20"/>
<text xml:space="preserve" text-anchor="middle" x="59.75" y="-6.5" font-family="Helvetica,sans-Serif" font-size="10.00">domain.product.Product</text>
</a>
</g>
</g>
<!-- Node1&#45;&gt;Node2 -->
<g id="edge1_Node000001_Node000002" class="edge">
<title>Node1&#45;&gt;Node2</title>
<g id="a_edge1_Node000001_Node000002"><a xlink:title=" ">
<path fill="none" stroke="#63b8ff" d="M101.33,-55.55C93.63,-47.3 84.13,-37.12 76.15,-28.57"/>
<polygon fill="#63b8ff" stroke="#63b8ff" points="78.95,-26.44 69.56,-21.51 73.83,-31.21 78.95,-26.44"/>
</a>
</g>
</g>
<!-- Node3 -->
<g id="Node000003" class="node">
<title>Node3</title>
<g id="a_Node000003"><a xlink:title=" ">
<polygon fill="#e0e0e0" stroke="#999999" points="206,-20 137.5,-20 137.5,0 206,0 206,-20"/>
<text xml:space="preserve" text-anchor="middle" x="171.75" y="-6.5" font-family="Helvetica,sans-Serif" font-size="10.00">java.util.List</text>
</a>
</g>
</g>
<!-- Node1&#45;&gt;Node3 -->
<g id="edge2_Node000001_Node000003" class="edge">
<title>Node1&#45;&gt;Node3</title>
<g id="a_edge2_Node000001_Node000003"><a xlink:title=" ">
<path fill="none" stroke="#63b8ff" d="M130.17,-55.55C137.87,-47.3 147.37,-37.12 155.35,-28.57"/>
<polygon fill="#63b8ff" stroke="#63b8ff" points="157.67,-31.21 161.94,-21.51 152.55,-26.44 157.67,-31.21"/>
</a>
</g>
</g>
</g>
</svg>
