<?xml version="1.0" encoding="UTF-8" standalone="no"?>
<!DOCTYPE svg PUBLIC "-//W3C//DTD SVG 1.1//EN"
 "http://www.w3.org/Graphics/SVG/1.1/DTD/svg11.dtd">
<!-- Generated by graphviz version 14.0.4 (20251115.1723)
 -->
<!-- Title: src/domain/sale/Receipt.java Pages: 1 -->
<svg width="306pt" height="84pt"
 viewBox="0.00 0.00 306.00 84.00" xmlns="http://www.w3.org/2000/svg" xmlns:xlink="http://www.w3.org/1999/xlink">
<g id="graph0" class="graph" transform="scale(1 1) rotate(0) translate(4 80)">
<title>src/domain/sale/Receipt.java</title>
<!-- Node1 -->
<g id="Node000001" class="node">
<title>Node1</title>
<g id="a_Node000001"><a xlink:title=" ">
<polygon fill="#999999" stroke="#666666" points="232.25,-76 89.5,-76 89.5,-56 232.25,-56 232.25,-76"/>
<text xml:space="preserve" text-anchor="middle" x="160.88" y="-62.5" font-family="Helvetica,sans-Serif" font-size="10.00">src/domain/sale/Receipt.java</text>
</a>
</g>
</g>
<!-- Node2 -->
<g id="Node000002" class="node">
<title>Node2</title>
<g id="a_Node000002"><a xlink:title=" ">
<polygon fill="#e0e0e0" stroke="#999999" points="91.75,-20 0,-20 0,0 91.75,0 91.75,-20"/>
<text xml:space="preserve" text-anchor="middle" x="45.88" y="-6.5" font-family="Helvetica,sans-Serif" font-size="10.00">java.util.ArrayList</text>
</a>
</g>
</g>
<!-- Node1&#45;&gt;Node2 -->
<g id="edge1_Node000001_Node000002" class="edge">
<title>Node1&#45;&gt;Node2</title>
<g id="a_edge1_Node000001_Node000002"><a xlink:title=" ">
<path fill="none" stroke="#63b8ff" d="M140.84,-55.59C123.06,-47.24 96.81,-34.92 76.41,-25.34"/>
<polygon fill="#63b8ff" stroke="#63b8ff" points="77.97,-22.21 67.43,-21.12 75,-28.54 77.97,-22.21"/>
</a>
</g>
</g>
<!-- Node3 -->
<g id="Node000003" class="node">
<title>Node3</title>
<g id="a_Node000003"><a xlink:title=" ">
<polygon fill="#e0e0e0" stroke="#999999" points="211.62,-20 110.12,-20 110.12,0 211.62,0 211.62,-20"/>
<text xml:space="preserve" text-anchor="middle" x="160.88" y="-6.5" font-family="Helvetica,sans-Serif" font-size="10.00">java.util.Collections</text>
</a>
</g>
</g>
<!-- Node1&#45;&gt;Node3 -->
<g id="edge2_Node000001_Node000003" class="edge">
<title>Node1&#45;&gt;Node3</title>
<g id="a_edge2_Node000001_Node000003"><a xlink:title=" ">
<path fill="none" stroke="#63b8ff" d="M160.88,-55.59C160.88,-49.01 160.88,-39.96 160.88,-31.73"/>
<polygon fill="#63b8ff" stroke="#63b8ff" points="164.38,-31.81 160.88,-21.81 157.38,-31.81 164.38,-31.81"/>
</a>
</g>
</g>
<!-- Node4 -->
<g id="Node000004" class="node">
<title>Node4</title>
<g id="a_Node000004"><a xlink:title=" ">
<polygon fill="#e0e0e0" stroke="#999999" points="298.12,-20 229.62,-20 229.62,0 298.12,0 298.12,-20"/>
<text xml:space="preserve" text-anchor="middle" x="263.88" y="-6.5" font-family="Helvetica,sans-Serif" font-size="10.00">java.util.List</text>
</a>
</g>
</g>
<!-- Node1&#45;&gt;Node4 -->
<g id="edge3_Node000001_Node000004" class="edge">
<title>Node1&#45;&gt;Node4</title>
<g id="a_edge3_Node000001_Node000004"><a xlink:title=" ">
<path fill="none" stroke="#63b8ff" d="M178.82,-55.59C194.52,-47.36 217.61,-35.26 235.76,-25.74"/>
<polygon fill="#63b8ff" stroke="#63b8ff" points="237.22,-28.93 244.45,-21.18 233.97,-22.73 237.22,-28.93"/>
</a>
</g>
</g>
</g>
</svg>
