<?xml version="1.0" encoding="UTF-8" standalone="no"?>
<!DOCTYPE svg PUBLIC "-//W3C//DTD SVG 1.1//EN"
 "http://www.w3.org/Graphics/SVG/1.1/DTD/svg11.dtd">
<!-- Generated by graphviz version 14.0.4 (20251115.1723)
 -->
<!-- Title: src/application/SellProductUseCase.java Pages: 1 -->
<svg width="1326pt" height="108pt"
 viewBox="0.00 0.00 1326.00 108.00" xmlns="http://www.w3.org/2000/svg" xmlns:xlink="http://www.w3.org/1999/xlink">
<g id="graph0" class="graph" transform="scale(1 1) rotate(0) translate(4 104)">
<title>src/application/SellProductUseCase.java</title>
<!-- Node1 -->
<g id="Node000001" class="node">
<title>Node1</title>
<g id="a_Node000001"><a xlink:title=" ">
<polygon fill="#999999" stroke="#666666" points="784.12,-100 651.88,-100 651.88,-68 784.12,-68 784.12,-100"/>
<text xml:space="preserve" text-anchor="start" x="659.88" y="-86.5" font-family="Helvetica,sans-Serif" font-size="10.00">src/application/SellProduct</text>
<text xml:space="preserve" text-anchor="middle" x="718" y="-74.5" font-family="Helvetica,sans-Serif" font-size="10.00">UseCase.java</text>
</a>
</g>
</g>
<!-- Node2 -->
<g id="Node000002" class="node">
<title>Node2</title>
<g id="a_Node000002"><a xlink:title=" ">
<polygon fill="#e0e0e0" stroke="#999999" points="124,-32 0,-32 0,0 124,0 124,-32"/>
<text xml:space="preserve" text-anchor="start" x="8" y="-18.5" font-family="Helvetica,sans-Serif" font-size="10.00">application.ports.Product</text>
<text xml:space="preserve" text-anchor="middle" x="62" y="-6.5" font-family="Helvetica,sans-Serif" font-size="10.00">Repository</text>
</a>
</g>
</g>
<!-- Node1&#45;&gt;Node2 -->
<g id="edge1_Node000001_Node000002" class="edge">
<title>Node1&#45;&gt;Node2</title>
<g id="a_edge1_Node000001_Node000002"><a xlink:title=" ">
<path fill="none" stroke="#63b8ff" d="M651.46,-79.83C544.66,-74.17 328.25,-60.31 135.46,-32.25"/>
<polygon fill="#63b8ff" stroke="#63b8ff" points="136.16,-28.82 125.76,-30.82 135.14,-35.74 136.16,-28.82"/>
</a>
</g>
</g>
<!-- Node3 -->
<g id="Node000003" class="node">
<title>Node3</title>
<g id="a_Node000003"><a xlink:title=" ">
<polygon fill="#e0e0e0" stroke="#999999" points="269.88,-32 142.12,-32 142.12,0 269.88,0 269.88,-32"/>
<text xml:space="preserve" text-anchor="start" x="150.12" y="-18.5" font-family="Helvetica,sans-Serif" font-size="10.00">domain.product.Container</text>
<text xml:space="preserve" text-anchor="middle" x="206" y="-6.5" font-family="Helvetica,sans-Serif" font-size="10.00">Product</text>
</a>
</g>
</g>
<!-- Node1&#45;&gt;Node3 -->
<g id="edge2_Node000001_Node000003" class="edge">
<title>Node1&#45;&gt;Node3</title>
<g id="a_edge2_Node000001_Node000003"><a xlink:title=" ">
<path fill="none" stroke="#63b8ff" d="M651.56,-77.1C567.63,-69.24 418.56,-53.93 281.17,-32.26"/>
<polygon fill="#63b8ff" stroke="#63b8ff" points="281.96,-28.84 271.53,-30.72 280.86,-35.76 281.96,-28.84"/>
</a>
</g>
</g>
<!-- Node4 -->
<g id="Node000004" class="node">
<title>Node4</title>
<g id="a_Node000004"><a xlink:title=" ">
<polygon fill="#e0e0e0" stroke="#999999" points="407.75,-26 288.25,-26 288.25,-6 407.75,-6 407.75,-26"/>
<text xml:space="preserve" text-anchor="middle" x="348" y="-12.5" font-family="Helvetica,sans-Serif" font-size="10.00">domain.product.Product</text>
</a>
</g>
</g>
<!-- Node1&#45;&gt;Node4 -->
<g id="edge3_Node000001_Node000004" class="edge">
<title>Node1&#45;&gt;Node4</title>
<g id="a_edge3_Node000001_Node000004"><a xlink:title=" ">
<path fill="none" stroke="#63b8ff" d="M651.49,-72.64C590.39,-62.9 497.4,-47.54 417,-32 411.78,-30.99 406.35,-29.89 400.94,-28.77"/>
<polygon fill="#63b8ff" stroke="#63b8ff" points="401.89,-25.39 391.38,-26.75 400.44,-32.24 401.89,-25.39"/>
</a>
</g>
</g>
<!-- Node5 -->
<g id="Node000005" class="node">
<title>Node5</title>
<g id="a_Node000005"><a xlink:title=" ">
<polygon fill="#e0e0e0" stroke="#999999" points="575.75,-26 426.25,-26 426.25,-6 575.75,-6 575.75,-26"/>
<text xml:space="preserve" text-anchor="middle" x="501" y="-12.5" font-family="Helvetica,sans-Serif" font-size="10.00">domain.product.SimpleProduct</text>
</a>
</g>
</g>
<!-- Node1&#45;&gt;Node5 -->
<g id="edge4_Node000001_Node000005" class="edge">
<title>Node1&#45;&gt;Node5</title>
<g id="a_edge4_Node000001_Node000005"><a xlink:title=" ">
<path fill="none" stroke="#63b8ff" d="M667.12,-67.53C629.37,-56.04 578.5,-40.57 543.04,-29.79"/>
<polygon fill="#63b8ff" stroke="#63b8ff" points="544.14,-26.46 533.55,-26.9 542.1,-33.16 544.14,-26.46"/>
</a>
</g>
</g>
<!-- Node6 -->
<g id="Node000006" class="node">
<title>Node6</title>
<g id="a_Node000006"><a xlink:title=" ">
<polygon fill="#e0e0e0" stroke="#999999" points="702.12,-26 593.88,-26 593.88,-6 702.12,-6 702.12,-26"/>
<text xml:space="preserve" text-anchor="middle" x="648" y="-12.5" font-family="Helvetica,sans-Serif" font-size="10.00">domain.sale.CartLine</text>
</a>
</g>
</g>
<!-- Node1&#45;&gt;Node6 -->
<g id="edge5_Node000001_Node000006" class="edge">
<title>Node1&#45;&gt;Node6</title>
<g id="a_edge5_Node000001_Node000006"><a xlink:title=" ">
<path fill="none" stroke="#63b8ff" d="M701.76,-67.69C691.06,-57.6 677.02,-44.36 665.98,-33.95"/>
<polygon fill="#63b8ff" stroke="#63b8ff" points="668.66,-31.67 658.98,-27.35 663.86,-36.76 668.66,-31.67"/>
</a>
</g>
</g>
<!-- Node7 -->
<g id="Node000007" class="node">
<title>Node7</title>
<g id="a_Node000007"><a xlink:title=" ">
<polygon fill="#e0e0e0" stroke="#999999" points="857.75,-26 720.25,-26 720.25,-6 857.75,-6 857.75,-26"/>
<text xml:space="preserve" text-anchor="middle" x="789" y="-12.5" font-family="Helvetica,sans-Serif" font-size="10.00">domain.sale.DiscountPolicy</text>
</a>
</g>
</g>
<!-- Node1&#45;&gt;Node7 -->
<g id="edge6_Node000001_Node000007" class="edge">
<title>Node1&#45;&gt;Node7</title>
<g id="a_edge6_Node000001_Node000007"><a xlink:title=" ">
<path fill="none" stroke="#63b8ff" d="M734.47,-67.69C745.33,-57.6 759.56,-44.36 770.77,-33.95"/>
<polygon fill="#63b8ff" stroke="#63b8ff" points="772.93,-36.72 777.87,-27.35 768.16,-31.59 772.93,-36.72"/>
</a>
</g>
</g>
<!-- Node8 -->
<g id="Node000008" class="node">
<title>Node8</title>
<g id="a_Node000008"><a xlink:title=" ">
<polygon fill="#e0e0e0" stroke="#999999" points="980.62,-26 875.38,-26 875.38,-6 980.62,-6 980.62,-26"/>
<text xml:space="preserve" text-anchor="middle" x="928" y="-12.5" font-family="Helvetica,sans-Serif" font-size="10.00">domain.sale.Receipt</text>
</a>
</g>
</g>
<!-- Node1&#45;&gt;Node8 -->
<g id="edge7_Node000001_Node000008" class="edge">
<title>Node1&#45;&gt;Node8</title>
<g id="a_edge7_Node000001_Node000008"><a xlink:title=" ">
<path fill="none" stroke="#63b8ff" d="M767.24,-67.53C803.77,-56.04 853,-40.57 887.32,-29.79"/>
<polygon fill="#63b8ff" stroke="#63b8ff" points="887.97,-33.25 896.46,-26.91 885.87,-26.57 887.97,-33.25"/>
</a>
</g>
</g>
<!-- Node9 -->
<g id="Node000009" class="node">
<title>Node9</title>
<g id="a_Node000009"><a xlink:title=" ">
<polygon fill="#e0e0e0" stroke="#999999" points="1121.62,-26 998.38,-26 998.38,-6 1121.62,-6 1121.62,-26"/>
<text xml:space="preserve" text-anchor="middle" x="1060" y="-12.5" font-family="Helvetica,sans-Serif" font-size="10.00">domain.sale.ReceiptLine</text>
</a>
</g>
</g>
<!-- Node1&#45;&gt;Node9 -->
<g id="edge8_Node000001_Node000009" class="edge">
<title>Node1&#45;&gt;Node9</title>
<g id="a_edge8_Node000001_Node000009"><a xlink:title=" ">
<path fill="none" stroke="#63b8ff" d="M784.6,-71.01C839.73,-60.96 920.05,-46.05 990,-32 995.14,-30.97 1000.48,-29.87 1005.82,-28.75"/>
<polygon fill="#63b8ff" stroke="#63b8ff" points="1006.18,-32.26 1015.24,-26.77 1004.73,-25.41 1006.18,-32.26"/>
</a>
</g>
</g>
<!-- Node10 -->
<g id="Node000010" class="node">
<title>Node10</title>
<g id="a_Node000010"><a xlink:title=" ">
<polygon fill="#e0e0e0" stroke="#999999" points="1231.88,-26 1140.12,-26 1140.12,-6 1231.88,-6 1231.88,-26"/>
<text xml:space="preserve" text-anchor="middle" x="1186" y="-12.5" font-family="Helvetica,sans-Serif" font-size="10.00">java.util.ArrayList</text>
</a>
</g>
</g>
<!-- Node1&#45;&gt;Node10 -->
<g id="edge9_Node000001_Node000010" class="edge">
<title>Node1&#45;&gt;Node10</title>
<g id="a_edge9_Node000001_Node000010"><a xlink:title=" ">
<path fill="none" stroke="#63b8ff" d="M784.27,-77.77C866.24,-70.62 1009.79,-55.88 1131,-32 1135.08,-31.2 1139.29,-30.25 1143.5,-29.24"/>
<polygon fill="#63b8ff" stroke="#63b8ff" points="1144.2,-32.67 1153.02,-26.8 1142.46,-25.89 1144.2,-32.67"/>
</a>
</g>
</g>
<!-- Node11 -->
<g id="Node000011" class="node">
<title>Node11</title>
<g id="a_Node000011"><a xlink:title=" ">
<polygon fill="#e0e0e0" stroke="#999999" points="1318.25,-26 1249.75,-26 1249.75,-6 1318.25,-6 1318.25,-26"/>
<text xml:space="preserve" text-anchor="middle" x="1284" y="-12.5" font-family="Helvetica,sans-Serif" font-size="10.00">java.util.List</text>
</a>
</g>
</g>
<!-- Node1&#45;&gt;Node11 -->
<g id="edge10_Node000001_Node000011" class="edge">
<title>Node1&#45;&gt;Node11</title>
<g id="a_edge10_Node000001_Node000011"><a xlink:title=" ">
<path fill="none" stroke="#63b8ff" d="M784.42,-81.58C884.52,-78.3 1079.5,-67.51 1241,-32 1243.77,-31.39 1246.61,-30.66 1249.44,-29.85"/>
<polygon fill="#63b8ff" stroke="#63b8ff" points="1250.27,-33.26 1258.74,-26.9 1248.15,-26.59 1250.27,-33.26"/>
</a>
</g>
</g>
</g>
</svg>
