<?xml version="1.0" encoding="UTF-8" standalone="no"?>
<!DOCTYPE svg PUBLIC "-//W3C//DTD SVG 1.1//EN"
 "http://www.w3.org/Graphics/SVG/1.1/DTD/svg11.dtd">
<!-- Generated by graphviz version 14.0.4 (20251115.1723)
 -->
<!-- Title: src/application/SellProductUseCase.java Pages: 1 -->
<svg width="438pt" height="108pt"
 viewBox="0.00 0.00 438.00 108.00" xmlns="http://www.w3.org/2000/svg" xmlns:xlink="http://www.w3.org/1999/xlink">
<g id="graph0" class="graph" transform="scale(1 1) rotate(0) translate(4 104)">
<title>src/application/SellProductUseCase.java</title>
<!-- Node1 -->
<g id="Node000001" class="node">
<title>Node1</title>
<g id="a_Node000001"><a xlink:title=" ">
<polygon fill="#999999" stroke="#666666" points="268.12,-100 135.88,-100 135.88,-68 268.12,-68 268.12,-100"/>
<text xml:space="preserve" text-anchor="start" x="143.88" y="-86.5" font-family="Helvetica,sans-Serif" font-size="10.00">src/application/SellProduct</text>
<text xml:space="preserve" text-anchor="middle" x="202" y="-74.5" font-family="Helvetica,sans-Serif" font-size="10.00">UseCase.java</text>
</a>
</g>
</g>
<!-- Node2 -->
<g id="Node000002" class="node">
<title>Node2</title>
<g id="a_Node000002"><a xlink:title=" ">
<polygon fill="#e0e0e0" stroke="#999999" points="124,-32 0,-32 0,0 124,0 124,-32"/>
<text xml:space="preserve" text-anchor="start" x="8" y="-18.5" font-family="Helvetica,sans-Serif" font-size="10.00">application.ports.Product</text>
<text xml:space="preserve" text-anchor="middle" x="62" y="-6.5" font-family="Helvetica,sans-Serif" font-size="10.00">Repository</text>
</a>
</g>
</g>
<!-- Node1&#45;&gt;Node2 -->
<g id="edge1_Node000001_Node000002" class="edge">
<title>Node1&#45;&gt;Node2</title>
<g id="a_edge1_Node000001_Node000002"><a xlink:title=" ">
<path fill="none" stroke="#63b8ff" d="M169.18,-67.53C149.96,-58.46 125.47,-46.92 104.75,-37.15"/>
<polygon fill="#63b8ff" stroke="#63b8ff" points="106.52,-34.12 95.99,-33.02 103.54,-40.45 106.52,-34.12"/>
</a>
</g>
</g>
<!-- Node3 -->
<g id="Node000003" class="node">
<title>Node3</title>
<g id="a_Node000003"><a xlink:title=" ">
<polygon fill="#e0e0e0" stroke="#999999" points="261.75,-26 142.25,-26 142.25,-6 261.75,-6 261.75,-26"/>
<text xml:space="preserve" text-anchor="middle" x="202" y="-12.5" font-family="Helvetica,sans-Serif" font-size="10.00">domain.product.Product</text>
</a>
</g>
</g>
<!-- Node1&#45;&gt;Node3 -->
<g id="edge2_Node000001_Node000003" class="edge">
<title>Node1&#45;&gt;Node3</title>
<g id="a_edge2_Node000001_Node000003"><a xlink:title=" ">
<path fill="none" stroke="#63b8ff" d="M202,-67.69C202,-58.8 202,-47.46 202,-37.77"/>
<polygon fill="#63b8ff" stroke="#63b8ff" points="205.5,-37.83 202,-27.83 198.5,-37.83 205.5,-37.83"/>
</a>
</g>
</g>
<!-- Node4 -->
<g id="Node000004" class="node">
<title>Node4</title>
<g id="a_Node000004"><a xlink:title=" ">
<polygon fill="#e0e0e0" stroke="#999999" points="429.75,-26 280.25,-26 280.25,-6 429.75,-6 429.75,-26"/>
<text xml:space="preserve" text-anchor="middle" x="355" y="-12.5" font-family="Helvetica,sans-Serif" font-size="10.00">domain.product.SimpleProduct</text>
</a>
</g>
</g>
<!-- Node1&#45;&gt;Node4 -->
<g id="edge3_Node000001_Node000004" class="edge">
<title>Node1&#45;&gt;Node4</title>
<g id="a_edge3_Node000001_Node000004"><a xlink:title=" ">
<path fill="none" stroke="#63b8ff" d="M237.87,-67.53C263.57,-56.44 297.88,-41.64 322.72,-30.92"/>
<polygon fill="#63b8ff" stroke="#63b8ff" points="323.88,-34.23 331.68,-27.06 321.11,-27.81 323.88,-34.23"/>
</a>
</g>
</g>
</g>
</svg>
