<?xml version="1.0" encoding="UTF-8" standalone="no"?>
<!DOCTYPE svg PUBLIC "-//W3C//DTD SVG 1.1//EN"
 "http://www.w3.org/Graphics/SVG/1.1/DTD/svg11.dtd">
<!-- Generated by graphviz version 14.0.4 (20251115.1723)
 -->
<!-- Title: src/domain/product/SimpleProduct.java Pages: 1 -->
<svg width="274pt" height="96pt"
 viewBox="0.00 0.00 274.00 96.00" xmlns="http://www.w3.org/2000/svg" xmlns:xlink="http://www.w3.org/1999/xlink">
<g id="graph0" class="graph" transform="scale(1 1) rotate(0) translate(4 92)">
<title>src/domain/product/SimpleProduct.java</title>
<!-- Node1 -->
<g id="Node000001" class="node">
<title>Node1</title>
<g id="a_Node000001"><a xlink:title=" ">
<polygon fill="#999999" stroke="#666666" points="178.12,-88 74.38,-88 74.38,-56 178.12,-56 178.12,-88"/>
<text xml:space="preserve" text-anchor="start" x="82.38" y="-74.5" font-family="Helvetica,sans-Serif" font-size="10.00">src/domain/product</text>
<text xml:space="preserve" text-anchor="middle" x="126.25" y="-62.5" font-family="Helvetica,sans-Serif" font-size="10.00">/SimpleProduct.java</text>
</a>
</g>
</g>
<!-- Node2 -->
<g id="Node000002" class="node">
<title>Node2</title>
<g id="a_Node000002"><a xlink:title=" ">
<polygon fill="#e0e0e0" stroke="#999999" points="110.5,-20 0,-20 0,0 110.5,0 110.5,-20"/>
<text xml:space="preserve" text-anchor="middle" x="55.25" y="-6.5" font-family="Helvetica,sans-Serif" font-size="10.00">domain.catalog.Brand</text>
</a>
</g>
</g>
<!-- Node1&#45;&gt;Node2 -->
<g id="edge1_Node000001_Node000002" class="edge">
<title>Node1&#45;&gt;Node2</title>
<g id="a_edge1_Node000001_Node000002"><a xlink:title=" ">
<path fill="none" stroke="#63b8ff" d="M107.97,-55.55C97.9,-47.04 85.4,-36.48 75.09,-27.77"/>
<polygon fill="#63b8ff" stroke="#63b8ff" points="77.44,-25.17 67.54,-21.38 72.92,-30.51 77.44,-25.17"/>
</a>
</g>
</g>
<!-- Node3 -->
<g id="Node000003" class="node">
<title>Node3</title>
<g id="a_Node000003"><a xlink:title=" ">
<polygon fill="#e0e0e0" stroke="#999999" points="265.62,-20 128.88,-20 128.88,0 265.62,0 265.62,-20"/>
<text xml:space="preserve" text-anchor="middle" x="197.25" y="-6.5" font-family="Helvetica,sans-Serif" font-size="10.00">domain.catalog.ProductLine</text>
</a>
</g>
</g>
<!-- Node1&#45;&gt;Node3 -->
<g id="edge2_Node000001_Node000003" class="edge">
<title>Node1&#45;&gt;Node3</title>
<g id="a_edge2_Node000001_Node000003"><a xlink:title=" ">
<path fill="none" stroke="#63b8ff" d="M144.53,-55.55C154.6,-47.04 167.1,-36.48 177.41,-27.77"/>
<polygon fill="#63b8ff" stroke="#63b8ff" points="179.58,-30.51 184.96,-21.38 175.06,-25.17 179.58,-30.51"/>
</a>
</g>
</g>
</g>
</svg>
