<?xml version="1.0" encoding="UTF-8" standalone="no"?>
<!DOCTYPE svg PUBLIC "-//W3C//DTD SVG 1.1//EN"
 "http://www.w3.org/Graphics/SVG/1.1/DTD/svg11.dtd">
<!-- Generated by graphviz version 14.0.4 (20251115.1723)
 -->
<!-- Title: src/application/SortProductsUseCase.java Pages: 1 -->
<svg width="588pt" height="108pt"
 viewBox="0.00 0.00 588.00 108.00" xmlns="http://www.w3.org/2000/svg" xmlns:xlink="http://www.w3.org/1999/xlink">
<g id="graph0" class="graph" transform="scale(1 1) rotate(0) translate(4 104)">
<title>src/application/SortProductsUseCase.java</title>
<!-- Node1 -->
<g id="Node000001" class="node">
<title>Node1</title>
<g id="a_Node000001"><a xlink:title=" ">
<polygon fill="#999999" stroke="#666666" points="395.5,-100 256.5,-100 256.5,-68 395.5,-68 395.5,-100"/>
<text xml:space="preserve" text-anchor="start" x="264.5" y="-86.5" font-family="Helvetica,sans-Serif" font-size="10.00">src/application/SortProducts</text>
<text xml:space="preserve" text-anchor="middle" x="326" y="-74.5" font-family="Helvetica,sans-Serif" font-size="10.00">UseCase.java</text>
</a>
</g>
</g>
<!-- Node2 -->
<g id="Node000002" class="node">
<title>Node2</title>
<g id="a_Node000002"><a xlink:title=" ">
<polygon fill="#e0e0e0" stroke="#999999" points="124,-32 0,-32 0,0 124,0 124,-32"/>
<text xml:space="preserve" text-anchor="start" x="8" y="-18.5" font-family="Helvetica,sans-Serif" font-size="10.00">application.ports.Product</text>
<text xml:space="preserve" text-anchor="middle" x="62" y="-6.5" font-family="Helvetica,sans-Serif" font-size="10.00">Repository</text>
</a>
</g>
</g>
<!-- Node1&#45;&gt;Node2 -->
<g id="edge1_Node000001_Node000002" class="edge">
<title>Node1&#45;&gt;Node2</title>
<g id="a_edge1_Node000001_Node000002"><a xlink:title=" ">
<path fill="none" stroke="#63b8ff" d="M264.1,-67.53C225.52,-57.88 175.67,-45.42 135.13,-35.28"/>
<polygon fill="#63b8ff" stroke="#63b8ff" points="135.98,-31.89 125.43,-32.86 134.29,-38.68 135.98,-31.89"/>
</a>
</g>
</g>
<!-- Node3 -->
<g id="Node000003" class="node">
<title>Node3</title>
<g id="a_Node000003"><a xlink:title=" ">
<polygon fill="#e0e0e0" stroke="#999999" points="261.75,-26 142.25,-26 142.25,-6 261.75,-6 261.75,-26"/>
<text xml:space="preserve" text-anchor="middle" x="202" y="-12.5" font-family="Helvetica,sans-Serif" font-size="10.00">domain.product.Product</text>
</a>
</g>
</g>
<!-- Node1&#45;&gt;Node3 -->
<g id="edge2_Node000001_Node000003" class="edge">
<title>Node1&#45;&gt;Node3</title>
<g id="a_edge2_Node000001_Node000003"><a xlink:title=" ">
<path fill="none" stroke="#63b8ff" d="M296.93,-67.53C276.66,-56.74 249.78,-42.43 229.8,-31.8"/>
<polygon fill="#63b8ff" stroke="#63b8ff" points="231.58,-28.78 221.11,-27.17 228.29,-34.96 231.58,-28.78"/>
</a>
</g>
</g>
<!-- Node4 -->
<g id="Node000004" class="node">
<title>Node4</title>
<g id="a_Node000004"><a xlink:title=" ">
<polygon fill="#e0e0e0" stroke="#999999" points="371.88,-26 280.12,-26 280.12,-6 371.88,-6 371.88,-26"/>
<text xml:space="preserve" text-anchor="middle" x="326" y="-12.5" font-family="Helvetica,sans-Serif" font-size="10.00">java.util.ArrayList</text>
</a>
</g>
</g>
<!-- Node1&#45;&gt;Node4 -->
<g id="edge3_Node000001_Node000004" class="edge">
<title>Node1&#45;&gt;Node4</title>
<g id="a_edge3_Node000001_Node000004"><a xlink:title=" ">
<path fill="none" stroke="#63b8ff" d="M326,-67.69C326,-58.8 326,-47.46 326,-37.77"/>
<polygon fill="#63b8ff" stroke="#63b8ff" points="329.5,-37.83 326,-27.83 322.5,-37.83 329.5,-37.83"/>
</a>
</g>
</g>
<!-- Node5 -->
<g id="Node000005" class="node">
<title>Node5</title>
<g id="a_Node000005"><a xlink:title=" ">
<polygon fill="#e0e0e0" stroke="#999999" points="493.88,-26 390.12,-26 390.12,-6 493.88,-6 493.88,-26"/>
<text xml:space="preserve" text-anchor="middle" x="442" y="-12.5" font-family="Helvetica,sans-Serif" font-size="10.00">java.util.Comparator</text>
</a>
</g>
</g>
<!-- Node1&#45;&gt;Node5 -->
<g id="edge4_Node000001_Node000005" class="edge">
<title>Node1&#45;&gt;Node5</title>
<g id="a_edge4_Node000001_Node000005"><a xlink:title=" ">
<path fill="none" stroke="#63b8ff" d="M353.2,-67.53C371.98,-56.84 396.84,-42.7 415.47,-32.09"/>
<polygon fill="#63b8ff" stroke="#63b8ff" points="417.1,-35.2 424.06,-27.21 413.64,-29.11 417.1,-35.2"/>
</a>
</g>
</g>
<!-- Node6 -->
<g id="Node000006" class="node">
<title>Node6</title>
<g id="a_Node000006"><a xlink:title=" ">
<polygon fill="#e0e0e0" stroke="#999999" points="580.25,-26 511.75,-26 511.75,-6 580.25,-6 580.25,-26"/>
<text xml:space="preserve" text-anchor="middle" x="546" y="-12.5" font-family="Helvetica,sans-Serif" font-size="10.00">java.util.List</text>
</a>
</g>
</g>
<!-- Node1&#45;&gt;Node6 -->
<g id="edge5_Node000001_Node000006" class="edge">
<title>Node1&#45;&gt;Node6</title>
<g id="a_edge5_Node000001_Node000006"><a xlink:title=" ">
<path fill="none" stroke="#63b8ff" d="M382.44,-67.59C417.32,-57.86 462.93,-44.75 503,-32 504.95,-31.38 506.94,-30.73 508.95,-30.07"/>
<polygon fill="#63b8ff" stroke="#63b8ff" points="509.91,-33.44 518.26,-26.92 507.67,-26.81 509.91,-33.44"/>
</a>
</g>
</g>
</g>
</svg>
