<?xml version="1.0" encoding="UTF-8" standalone="no"?>
<!DOCTYPE svg PUBLIC "-//W3C//DTD SVG 1.1//EN"
 "http://www.w3.org/Graphics/SVG/1.1/DTD/svg11.dtd">
<!-- Generated by graphviz version 14.0.4 (20251115.1723)
 -->
<!-- Title: domain.product.Product.getStock Pages: 1 -->
<svg width="484pt" height="90pt"
 viewBox="0.00 0.00 484.00 90.00" xmlns="http://www.w3.org/2000/svg" xmlns:xlink="http://www.w3.org/1999/xlink">
<g id="graph0" class="graph" transform="scale(1 1) rotate(0) translate(4 86)">
<title>domain.product.Product.getStock</title>
<!-- Node1 -->
<g id="Node000001" class="node">
<title>Node1</title>
<g id="a_Node000001"><a xlink:title="Retourne la quantité en stock.">
<polygon fill="#999999" stroke="#666666" points="476.25,-57 340.25,-57 340.25,-25 476.25,-25 476.25,-57"/>
<text xml:space="preserve" text-anchor="start" x="348.25" y="-43.5" font-family="Helvetica,sans-Serif" font-size="10.00">domain.product.Product.get</text>
<text xml:space="preserve" text-anchor="middle" x="408.25" y="-31.5" font-family="Helvetica,sans-Serif" font-size="10.00">Stock</text>
</a>
</g>
</g>
<!-- Node2 -->
<g id="Node000002" class="node">
<title>Node2</title>
<g id="a_Node000002"><a xlink:href="classapplication_1_1_add_product_use_case.html#a8701179ffffe5aa119971baeda93e31a" target="_top" xlink:title="Ajoute un produit au stock.">
<polygon fill="white" stroke="#666666" points="304.25,-82 169.75,-82 169.75,-50 304.25,-50 304.25,-82"/>
<text xml:space="preserve" text-anchor="start" x="177.75" y="-68.5" font-family="Helvetica,sans-Serif" font-size="10.00">application.AddProductUse</text>
<text xml:space="preserve" text-anchor="middle" x="237" y="-56.5" font-family="Helvetica,sans-Serif" font-size="10.00">Case.execute</text>
</a>
</g>
</g>
<!-- Node1&#45;&gt;Node2 -->
<g id="edge1_Node000001_Node000002" class="edge">
<title>Node1&#45;&gt;Node2</title>
<g id="a_edge1_Node000001_Node000002"><a xlink:title=" ">
<path fill="none" stroke="#63b8ff" d="M328.6,-52.62C320.57,-53.8 312.47,-55 304.59,-56.16"/>
<polygon fill="#63b8ff" stroke="#63b8ff" points="328.99,-56.1 338.37,-51.17 327.97,-49.17 328.99,-56.1"/>
</a>
</g>
</g>
<!-- Node3 -->
<g id="Node000003" class="node">
<title>Node3</title>
<g id="a_Node000003"><a xlink:href="classapplication_1_1_sell_product_use_case.html#a2a847baa6340d8bcd718693590f53fdf" target="_top" xlink:title="TP2 : Exécute une vente de type panier (max 3 articles).">
<polygon fill="white" stroke="#666666" points="303.88,-32 170.12,-32 170.12,0 303.88,0 303.88,-32"/>
<text xml:space="preserve" text-anchor="start" x="178.12" y="-18.5" font-family="Helvetica,sans-Serif" font-size="10.00">application.SellProductUse</text>
<text xml:space="preserve" text-anchor="middle" x="237" y="-6.5" font-family="Helvetica,sans-Serif" font-size="10.00">Case.executeCart</text>
</a>
</g>
</g>
<!-- Node1&#45;&gt;Node3 -->
<g id="edge2_Node000001_Node000003" class="edge">
<title>Node1&#45;&gt;Node3</title>
<g id="a_edge2_Node000001_Node000003"><a xlink:title=" ">
<path fill="none" stroke="#63b8ff" d="M328.51,-29.37C320.42,-28.17 312.26,-26.97 304.32,-25.8"/>
<polygon fill="#63b8ff" stroke="#63b8ff" points="327.97,-32.83 338.37,-30.83 328.99,-25.9 327.97,-32.83"/>
</a>
</g>
</g>
<!-- Node4 -->
<g id="Node000004" class="node">
<title>Node4</title>
<g id="a_Node000004"><a xlink:href="classapplication_1_1_sell_product_use_case.html#a8c21a7819025a9d1c89fa189134fdfe3" target="_top" xlink:title="Compatibilité TP1 : vend un seul produit (ancienne signature).">
<polygon fill="white" stroke="#666666" points="133.75,-32 0,-32 0,0 133.75,0 133.75,-32"/>
<text xml:space="preserve" text-anchor="start" x="8" y="-18.5" font-family="Helvetica,sans-Serif" font-size="10.00">application.SellProductUse</text>
<text xml:space="preserve" text-anchor="middle" x="66.88" y="-6.5" font-family="Helvetica,sans-Serif" font-size="10.00">Case.execute</text>
</a>
</g>
</g>
<!-- Node3&#45;&gt;Node4 -->
<g id="edge3_Node000003_Node000004" class="edge">
<title>Node3&#45;&gt;Node4</title>
<g id="a_edge3_Node000003_Node000004"><a xlink:title=" ">
<path fill="none" stroke="#63b8ff" d="M158.6,-16C150.45,-16 142.21,-16 134.2,-16"/>
<polygon fill="#63b8ff" stroke="#63b8ff" points="158.52,-19.5 168.52,-16 158.52,-12.5 158.52,-19.5"/>
</a>
</g>
</g>
</g>
</svg>
