<?xml version="1.0" encoding="UTF-8" standalone="no"?>
<!DOCTYPE svg PUBLIC "-//W3C//DTD SVG 1.1//EN"
 "http://www.w3.org/Graphics/SVG/1.1/DTD/svg11.dtd">
<!-- Generated by graphviz version 14.0.4 (20251115.1723)
 -->
<!-- Title: domain.product.Product.getProductId Pages: 1 -->
<svg width="333pt" height="140pt"
 viewBox="0.00 0.00 333.00 140.00" xmlns="http://www.w3.org/2000/svg" xmlns:xlink="http://www.w3.org/1999/xlink">
<g id="graph0" class="graph" transform="scale(1 1) rotate(0) translate(4 136)">
<title>domain.product.Product.getProductId</title>
<!-- Node1 -->
<g id="Node000001" class="node">
<title>Node1</title>
<g id="a_Node000001"><a xlink:title="Retourne l&#39;identifiant unique du produit.">
<polygon fill="#999999" stroke="#666666" points="325.25,-82 189.25,-82 189.25,-50 325.25,-50 325.25,-82"/>
<text xml:space="preserve" text-anchor="start" x="197.25" y="-68.5" font-family="Helvetica,sans-Serif" font-size="10.00">domain.product.Product.get</text>
<text xml:space="preserve" text-anchor="middle" x="257.25" y="-56.5" font-family="Helvetica,sans-Serif" font-size="10.00">ProductId</text>
</a>
</g>
</g>
<!-- Node2 -->
<g id="Node000002" class="node">
<title>Node2</title>
<g id="a_Node000002"><a xlink:href="classapplication_1_1_add_product_use_case.html#a8701179ffffe5aa119971baeda93e31a" target="_top" xlink:title="Ajoute un produit au stock.">
<polygon fill="white" stroke="#666666" points="143.88,-132 9.38,-132 9.38,-100 143.88,-100 143.88,-132"/>
<text xml:space="preserve" text-anchor="start" x="17.38" y="-118.5" font-family="Helvetica,sans-Serif" font-size="10.00">application.AddProductUse</text>
<text xml:space="preserve" text-anchor="middle" x="76.62" y="-106.5" font-family="Helvetica,sans-Serif" font-size="10.00">Case.execute</text>
</a>
</g>
</g>
<!-- Node1&#45;&gt;Node2 -->
<g id="edge1_Node000001_Node000002" class="edge">
<title>Node1&#45;&gt;Node2</title>
<g id="a_edge1_Node000001_Node000002"><a xlink:title=" ">
<path fill="none" stroke="#63b8ff" d="M186.98,-85.39C170.32,-90.05 152.69,-94.99 136.55,-99.51"/>
<polygon fill="#63b8ff" stroke="#63b8ff" points="187.62,-88.85 196.3,-82.78 185.73,-82.11 187.62,-88.85"/>
</a>
</g>
</g>
<!-- Node3 -->
<g id="Node000003" class="node">
<title>Node3</title>
<g id="a_Node000003"><a xlink:href="classapplication_1_1_sell_product_use_case.html#a8c21a7819025a9d1c89fa189134fdfe3" target="_top" xlink:title="Exécute la vente d&#39;un produit en diminuant son stock.">
<polygon fill="white" stroke="#666666" points="143.5,-82 9.75,-82 9.75,-50 143.5,-50 143.5,-82"/>
<text xml:space="preserve" text-anchor="start" x="17.75" y="-68.5" font-family="Helvetica,sans-Serif" font-size="10.00">application.SellProductUse</text>
<text xml:space="preserve" text-anchor="middle" x="76.62" y="-56.5" font-family="Helvetica,sans-Serif" font-size="10.00">Case.execute</text>
</a>
</g>
</g>
<!-- Node1&#45;&gt;Node3 -->
<g id="edge2_Node000001_Node000003" class="edge">
<title>Node1&#45;&gt;Node3</title>
<g id="a_edge2_Node000001_Node000003"><a xlink:title=" ">
<path fill="none" stroke="#63b8ff" d="M177.79,-66C166.5,-66 154.97,-66 143.95,-66"/>
<polygon fill="#63b8ff" stroke="#63b8ff" points="177.46,-69.5 187.46,-66 177.46,-62.5 177.46,-69.5"/>
</a>
</g>
</g>
<!-- Node4 -->
<g id="Node000004" class="node">
<title>Node4</title>
<g id="a_Node000004"><a xlink:href="classinfrastructure_1_1_in_memory_product_repository.html#a86e6c9f32e3b80b33abe9696e03eaa1d" target="_top" xlink:title="Enregistre ou met à jour un produit dans le stockage.">
<polygon fill="white" stroke="#666666" points="153.25,-32 0,-32 0,0 153.25,0 153.25,-32"/>
<text xml:space="preserve" text-anchor="start" x="8" y="-18.5" font-family="Helvetica,sans-Serif" font-size="10.00">infrastructure.InMemoryProduct</text>
<text xml:space="preserve" text-anchor="middle" x="76.62" y="-6.5" font-family="Helvetica,sans-Serif" font-size="10.00">Repository.save</text>
</a>
</g>
</g>
<!-- Node1&#45;&gt;Node4 -->
<g id="edge3_Node000001_Node000004" class="edge">
<title>Node1&#45;&gt;Node4</title>
<g id="a_edge3_Node000001_Node000004"><a xlink:title=" ">
<path fill="none" stroke="#63b8ff" d="M186.98,-46.61C170.32,-41.95 152.69,-37.01 136.55,-32.49"/>
<polygon fill="#63b8ff" stroke="#63b8ff" points="185.73,-49.89 196.3,-49.22 187.62,-43.15 185.73,-49.89"/>
</a>
</g>
</g>
</g>
</svg>
