<?xml version="1.0" encoding="UTF-8" standalone="no"?>
<!DOCTYPE svg PUBLIC "-//W3C//DTD SVG 1.1//EN"
 "http://www.w3.org/Graphics/SVG/1.1/DTD/svg11.dtd">
<!-- Generated by graphviz version 14.0.4 (20251115.1723)
 -->
<!-- Title: application.SellProductUseCase.executeCart Pages: 1 -->
<svg width="340pt" height="128pt"
 viewBox="0.00 0.00 340.00 128.00" xmlns="http://www.w3.org/2000/svg" xmlns:xlink="http://www.w3.org/1999/xlink">
<g id="graph0" class="graph" transform="scale(1 1) rotate(0) translate(4 124)">
<title>application.SellProductUseCase.executeCart</title>
<!-- Node1 -->
<g id="Node000001" class="node">
<title>Node1</title>
<g id="a_Node000001"><a xlink:title="TP2 : Exécute une vente de type panier (max 3 articles).">
<polygon fill="#999999" stroke="#666666" points="133.75,-82 0,-82 0,-50 133.75,-50 133.75,-82"/>
<text xml:space="preserve" text-anchor="start" x="8" y="-68.5" font-family="Helvetica,sans-Serif" font-size="10.00">application.SellProductUse</text>
<text xml:space="preserve" text-anchor="middle" x="66.88" y="-56.5" font-family="Helvetica,sans-Serif" font-size="10.00">Case.executeCart</text>
</a>
</g>
</g>
<!-- Node2 -->
<g id="Node000002" class="node">
<title>Node2</title>
<g id="a_Node000002"><a xlink:href="classdomain_1_1product_1_1_product.html#a2b5d35bdc181ae4aadd9dc21188ca8d8" target="_top" xlink:title="Retourne le nom du produit.">
<polygon fill="white" stroke="#666666" points="332,-120 169.75,-120 169.75,-100 332,-100 332,-120"/>
<text xml:space="preserve" text-anchor="middle" x="250.88" y="-106.5" font-family="Helvetica,sans-Serif" font-size="10.00">domain.product.Product.getName</text>
</a>
</g>
</g>
<!-- Node1&#45;&gt;Node2 -->
<g id="edge1_Node000001_Node000002" class="edge">
<title>Node1&#45;&gt;Node2</title>
<g id="a_edge1_Node000001_Node000002"><a xlink:title=" ">
<path fill="none" stroke="#63b8ff" d="M134.17,-82.35C146.01,-85.25 158.24,-88.22 169.75,-91 177.68,-92.91 186.06,-94.92 194.29,-96.88"/>
<polygon fill="#63b8ff" stroke="#63b8ff" points="193.35,-100.25 203.89,-99.16 194.97,-93.44 193.35,-100.25"/>
</a>
</g>
</g>
<!-- Node3 -->
<g id="Node000003" class="node">
<title>Node3</title>
<g id="a_Node000003"><a xlink:href="classdomain_1_1product_1_1_product.html#ab7dba8b7fa7529e93f867ab7ce7edfda" target="_top" xlink:title="Retourne le prix unitaire du produit.">
<polygon fill="white" stroke="#666666" points="318.88,-82 182.88,-82 182.88,-50 318.88,-50 318.88,-82"/>
<text xml:space="preserve" text-anchor="start" x="190.88" y="-68.5" font-family="Helvetica,sans-Serif" font-size="10.00">domain.product.Product.get</text>
<text xml:space="preserve" text-anchor="middle" x="250.88" y="-56.5" font-family="Helvetica,sans-Serif" font-size="10.00">Price</text>
</a>
</g>
</g>
<!-- Node1&#45;&gt;Node3 -->
<g id="edge2_Node000001_Node000003" class="edge">
<title>Node1&#45;&gt;Node3</title>
<g id="a_edge2_Node000001_Node000003"><a xlink:title=" ">
<path fill="none" stroke="#63b8ff" d="M134.1,-66C146.16,-66 158.85,-66 171.23,-66"/>
<polygon fill="#63b8ff" stroke="#63b8ff" points="170.97,-69.5 180.97,-66 170.97,-62.5 170.97,-69.5"/>
</a>
</g>
</g>
<!-- Node4 -->
<g id="Node000004" class="node">
<title>Node4</title>
<g id="a_Node000004"><a xlink:href="classdomain_1_1product_1_1_product.html#a63b4a0867feb6d8761be628c80951046" target="_top" xlink:title="Retourne la quantité en stock.">
<polygon fill="white" stroke="#666666" points="318.88,-32 182.88,-32 182.88,0 318.88,0 318.88,-32"/>
<text xml:space="preserve" text-anchor="start" x="190.88" y="-18.5" font-family="Helvetica,sans-Serif" font-size="10.00">domain.product.Product.get</text>
<text xml:space="preserve" text-anchor="middle" x="250.88" y="-6.5" font-family="Helvetica,sans-Serif" font-size="10.00">Stock</text>
</a>
</g>
</g>
<!-- Node1&#45;&gt;Node4 -->
<g id="edge3_Node000001_Node000004" class="edge">
<title>Node1&#45;&gt;Node4</title>
<g id="a_edge3_Node000001_Node000004"><a xlink:title=" ">
<path fill="none" stroke="#63b8ff" d="M127.72,-49.56C144.12,-45.05 162.06,-40.12 179.02,-35.47"/>
<polygon fill="#63b8ff" stroke="#63b8ff" points="179.82,-38.88 188.53,-32.85 177.96,-32.13 179.82,-38.88"/>
</a>
</g>
</g>
</g>
</svg>
