<?xml version="1.0" encoding="UTF-8" standalone="no"?>
<!DOCTYPE svg PUBLIC "-//W3C//DTD SVG 1.1//EN"
 "http://www.w3.org/Graphics/SVG/1.1/DTD/svg11.dtd">
<!-- Generated by graphviz version 14.0.4 (20251115.1723)
 -->
<!-- Title: application.AddProductUseCase.execute Pages: 1 -->
<svg width="341pt" height="278pt"
 viewBox="0.00 0.00 341.00 278.00" xmlns="http://www.w3.org/2000/svg" xmlns:xlink="http://www.w3.org/1999/xlink">
<g id="graph0" class="graph" transform="scale(1 1) rotate(0) translate(4 274)">
<title>application.AddProductUseCase.execute</title>
<!-- Node1 -->
<g id="Node000001" class="node">
<title>Node1</title>
<g id="a_Node000001"><a xlink:title="Ajoute un produit au stock.">
<polygon fill="#999999" stroke="#666666" points="134.5,-157 0,-157 0,-125 134.5,-125 134.5,-157"/>
<text xml:space="preserve" text-anchor="start" x="8" y="-143.5" font-family="Helvetica,sans-Serif" font-size="10.00">application.AddProductUse</text>
<text xml:space="preserve" text-anchor="middle" x="67.25" y="-131.5" font-family="Helvetica,sans-Serif" font-size="10.00">Case.execute</text>
</a>
</g>
</g>
<!-- Node2 -->
<g id="Node000002" class="node">
<title>Node2</title>
<g id="a_Node000002"><a xlink:href="classdomain_1_1product_1_1_product.html#a3f989b7cd47b684e15163909681fbba1" target="_top" xlink:title="Retourne la marque associée au produit.">
<polygon fill="white" stroke="#666666" points="319.62,-270 183.62,-270 183.62,-238 319.62,-238 319.62,-270"/>
<text xml:space="preserve" text-anchor="start" x="191.62" y="-256.5" font-family="Helvetica,sans-Serif" font-size="10.00">domain.product.Product.get</text>
<text xml:space="preserve" text-anchor="middle" x="251.62" y="-244.5" font-family="Helvetica,sans-Serif" font-size="10.00">Brand</text>
</a>
</g>
</g>
<!-- Node1&#45;&gt;Node2 -->
<g id="edge1_Node000001_Node000002" class="edge">
<title>Node1&#45;&gt;Node2</title>
<g id="a_edge1_Node000001_Node000002"><a xlink:title=" ">
<path fill="none" stroke="#63b8ff" d="M83,-157.24C101.62,-176.83 135.48,-209.57 170.5,-229 173.01,-230.39 175.61,-231.72 178.26,-232.98"/>
<polygon fill="#63b8ff" stroke="#63b8ff" points="176.79,-236.15 187.35,-236.93 179.58,-229.73 176.79,-236.15"/>
</a>
</g>
</g>
<!-- Node3 -->
<g id="Node000003" class="node">
<title>Node3</title>
<g id="a_Node000003"><a xlink:href="classdomain_1_1product_1_1_product.html#a2b5d35bdc181ae4aadd9dc21188ca8d8" target="_top" xlink:title="Retourne le nom du produit.">
<polygon fill="white" stroke="#666666" points="332.75,-220 170.5,-220 170.5,-200 332.75,-200 332.75,-220"/>
<text xml:space="preserve" text-anchor="middle" x="251.62" y="-206.5" font-family="Helvetica,sans-Serif" font-size="10.00">domain.product.Product.getName</text>
</a>
</g>
</g>
<!-- Node1&#45;&gt;Node3 -->
<g id="edge2_Node000001_Node000003" class="edge">
<title>Node1&#45;&gt;Node3</title>
<g id="a_edge2_Node000001_Node000003"><a xlink:title=" ">
<path fill="none" stroke="#63b8ff" d="M97.47,-157.45C117.52,-168.2 145.01,-181.87 170.5,-191 176.14,-193.02 182.07,-194.88 188.06,-196.59"/>
<polygon fill="#63b8ff" stroke="#63b8ff" points="186.81,-199.88 197.38,-199.11 188.63,-193.12 186.81,-199.88"/>
</a>
</g>
</g>
<!-- Node4 -->
<g id="Node000004" class="node">
<title>Node4</title>
<g id="a_Node000004"><a xlink:href="classdomain_1_1product_1_1_product.html#ab7dba8b7fa7529e93f867ab7ce7edfda" target="_top" xlink:title="Retourne le prix unitaire du produit.">
<polygon fill="white" stroke="#666666" points="319.62,-182 183.62,-182 183.62,-150 319.62,-150 319.62,-182"/>
<text xml:space="preserve" text-anchor="start" x="191.62" y="-168.5" font-family="Helvetica,sans-Serif" font-size="10.00">domain.product.Product.get</text>
<text xml:space="preserve" text-anchor="middle" x="251.62" y="-156.5" font-family="Helvetica,sans-Serif" font-size="10.00">Price</text>
</a>
</g>
</g>
<!-- Node1&#45;&gt;Node4 -->
<g id="edge3_Node000001_Node000004" class="edge">
<title>Node1&#45;&gt;Node4</title>
<g id="a_edge3_Node000001_Node000004"><a xlink:title=" ">
<path fill="none" stroke="#63b8ff" d="M134.87,-150.13C146.94,-151.79 159.64,-153.53 172.02,-155.22"/>
<polygon fill="#63b8ff" stroke="#63b8ff" points="171.39,-158.67 181.77,-156.56 172.34,-151.74 171.39,-158.67"/>
</a>
</g>
</g>
<!-- Node5 -->
<g id="Node000005" class="node">
<title>Node5</title>
<g id="a_Node000005"><a xlink:href="classdomain_1_1product_1_1_product.html#a02adba4533632f33c0f62dca8592a920" target="_top" xlink:title="Retourne l&#39;identifiant unique du produit.">
<polygon fill="white" stroke="#666666" points="319.62,-132 183.62,-132 183.62,-100 319.62,-100 319.62,-132"/>
<text xml:space="preserve" text-anchor="start" x="191.62" y="-118.5" font-family="Helvetica,sans-Serif" font-size="10.00">domain.product.Product.get</text>
<text xml:space="preserve" text-anchor="middle" x="251.62" y="-106.5" font-family="Helvetica,sans-Serif" font-size="10.00">ProductId</text>
</a>
</g>
</g>
<!-- Node1&#45;&gt;Node5 -->
<g id="edge4_Node000001_Node000005" class="edge">
<title>Node1&#45;&gt;Node5</title>
<g id="a_edge4_Node000001_Node000005"><a xlink:title=" ">
<path fill="none" stroke="#63b8ff" d="M134.87,-131.87C146.94,-130.21 159.64,-128.47 172.02,-126.78"/>
<polygon fill="#63b8ff" stroke="#63b8ff" points="172.34,-130.26 181.77,-125.44 171.39,-123.33 172.34,-130.26"/>
</a>
</g>
</g>
<!-- Node6 -->
<g id="Node000006" class="node">
<title>Node6</title>
<g id="a_Node000006"><a xlink:href="classdomain_1_1product_1_1_product.html#a82233b1106551cfa6313ad31342859bc" target="_top" xlink:title="Retourne la gamme à laquelle appartient le produit.">
<polygon fill="white" stroke="#666666" points="319.62,-82 183.62,-82 183.62,-50 319.62,-50 319.62,-82"/>
<text xml:space="preserve" text-anchor="start" x="191.62" y="-68.5" font-family="Helvetica,sans-Serif" font-size="10.00">domain.product.Product.get</text>
<text xml:space="preserve" text-anchor="middle" x="251.62" y="-56.5" font-family="Helvetica,sans-Serif" font-size="10.00">ProductLine</text>
</a>
</g>
</g>
<!-- Node1&#45;&gt;Node6 -->
<g id="edge5_Node000001_Node000006" class="edge">
<title>Node1&#45;&gt;Node6</title>
<g id="a_edge5_Node000001_Node000006"><a xlink:title=" ">
<path fill="none" stroke="#63b8ff" d="M98.57,-124.66C118.63,-114.23 145.71,-100.86 170.5,-91 174.77,-89.3 179.19,-87.65 183.68,-86.04"/>
<polygon fill="#63b8ff" stroke="#63b8ff" points="184.47,-89.47 192.78,-82.9 182.18,-82.86 184.47,-89.47"/>
</a>
</g>
</g>
<!-- Node7 -->
<g id="Node000007" class="node">
<title>Node7</title>
<g id="a_Node000007"><a xlink:href="classdomain_1_1product_1_1_product.html#a63b4a0867feb6d8761be628c80951046" target="_top" xlink:title="Retourne la quantité en stock.">
<polygon fill="white" stroke="#666666" points="319.62,-32 183.62,-32 183.62,0 319.62,0 319.62,-32"/>
<text xml:space="preserve" text-anchor="start" x="191.62" y="-18.5" font-family="Helvetica,sans-Serif" font-size="10.00">domain.product.Product.get</text>
<text xml:space="preserve" text-anchor="middle" x="251.62" y="-6.5" font-family="Helvetica,sans-Serif" font-size="10.00">Stock</text>
</a>
</g>
</g>
<!-- Node1&#45;&gt;Node7 -->
<g id="edge6_Node000001_Node000007" class="edge">
<title>Node1&#45;&gt;Node7</title>
<g id="a_edge6_Node000001_Node000007"><a xlink:title=" ">
<path fill="none" stroke="#63b8ff" d="M80.67,-124.75C98.33,-102.71 132.77,-63.53 170.5,-41 172.69,-39.69 174.95,-38.45 177.26,-37.27"/>
<polygon fill="#63b8ff" stroke="#63b8ff" points="178.71,-40.45 186.32,-33.08 175.77,-34.1 178.71,-40.45"/>
</a>
</g>
</g>
</g>
</svg>
