<?xml version="1.0" encoding="UTF-8" standalone="no"?>
<!DOCTYPE svg PUBLIC "-//W3C//DTD SVG 1.1//EN"
 "http://www.w3.org/Graphics/SVG/1.1/DTD/svg11.dtd">
<!-- Generated by graphviz version 14.0.4 (20251115.1723)
 -->
<!-- Title: domain.product.Product.getPrice Pages: 1 -->
<svg width="315pt" height="140pt"
 viewBox="0.00 0.00 315.00 140.00" xmlns="http://www.w3.org/2000/svg" xmlns:xlink="http://www.w3.org/1999/xlink">
<g id="graph0" class="graph" transform="scale(1 1) rotate(0) translate(4 136)">
<title>domain.product.Product.getPrice</title>
<!-- Node1 -->
<g id="Node000001" class="node">
<title>Node1</title>
<g id="a_Node000001"><a xlink:title="Retourne le prix unitaire du produit.">
<polygon fill="#999999" stroke="#666666" points="306.5,-82 170.5,-82 170.5,-50 306.5,-50 306.5,-82"/>
<text xml:space="preserve" text-anchor="start" x="178.5" y="-68.5" font-family="Helvetica,sans-Serif" font-size="10.00">domain.product.Product.get</text>
<text xml:space="preserve" text-anchor="middle" x="238.5" y="-56.5" font-family="Helvetica,sans-Serif" font-size="10.00">Price</text>
</a>
</g>
</g>
<!-- Node2 -->
<g id="Node000002" class="node">
<title>Node2</title>
<g id="a_Node000002"><a xlink:href="classapplication_1_1_add_product_use_case.html#a8701179ffffe5aa119971baeda93e31a" target="_top" xlink:title="Ajoute un produit au stock.">
<polygon fill="white" stroke="#666666" points="134.5,-132 0,-132 0,-100 134.5,-100 134.5,-132"/>
<text xml:space="preserve" text-anchor="start" x="8" y="-118.5" font-family="Helvetica,sans-Serif" font-size="10.00">application.AddProductUse</text>
<text xml:space="preserve" text-anchor="middle" x="67.25" y="-106.5" font-family="Helvetica,sans-Serif" font-size="10.00">Case.execute</text>
</a>
</g>
</g>
<!-- Node1&#45;&gt;Node2 -->
<g id="edge1_Node000001_Node000002" class="edge">
<title>Node1&#45;&gt;Node2</title>
<g id="a_edge1_Node000001_Node000002"><a xlink:title=" ">
<path fill="none" stroke="#63b8ff" d="M171.42,-85.52C155.77,-90.15 139.23,-95.03 124.08,-99.51"/>
<polygon fill="#63b8ff" stroke="#63b8ff" points="172.03,-88.99 180.63,-82.8 170.05,-82.28 172.03,-88.99"/>
</a>
</g>
</g>
<!-- Node3 -->
<g id="Node000003" class="node">
<title>Node3</title>
<g id="a_Node000003"><a xlink:href="classapplication_1_1_sell_product_use_case.html#a8c21a7819025a9d1c89fa189134fdfe3" target="_top" xlink:title="Exécute la vente d&#39;un produit en diminuant son stock.">
<polygon fill="white" stroke="#666666" points="134.12,-82 0.38,-82 0.38,-50 134.12,-50 134.12,-82"/>
<text xml:space="preserve" text-anchor="start" x="8.38" y="-68.5" font-family="Helvetica,sans-Serif" font-size="10.00">application.SellProductUse</text>
<text xml:space="preserve" text-anchor="middle" x="67.25" y="-56.5" font-family="Helvetica,sans-Serif" font-size="10.00">Case.execute</text>
</a>
</g>
</g>
<!-- Node1&#45;&gt;Node3 -->
<g id="edge2_Node000001_Node000003" class="edge">
<title>Node1&#45;&gt;Node3</title>
<g id="a_edge2_Node000001_Node000003"><a xlink:title=" ">
<path fill="none" stroke="#63b8ff" d="M158.76,-66C150.67,-66 142.51,-66 134.57,-66"/>
<polygon fill="#63b8ff" stroke="#63b8ff" points="158.61,-69.5 168.61,-66 158.61,-62.5 158.61,-69.5"/>
</a>
</g>
</g>
<!-- Node4 -->
<g id="Node000004" class="node">
<title>Node4</title>
<g id="a_Node000004"><a xlink:href="classapplication_1_1_sort_products_use_case.html#a50450d2e8f7304e5fc6ce38bee0efdce" target="_top" xlink:title="Trie les produits en mémoire par prix croissant.">
<polygon fill="white" stroke="#666666" points="128.5,-32 6,-32 6,0 128.5,0 128.5,-32"/>
<text xml:space="preserve" text-anchor="start" x="14" y="-18.5" font-family="Helvetica,sans-Serif" font-size="10.00">application.SortProducts</text>
<text xml:space="preserve" text-anchor="middle" x="67.25" y="-6.5" font-family="Helvetica,sans-Serif" font-size="10.00">UseCase.sortByPrice</text>
</a>
</g>
</g>
<!-- Node1&#45;&gt;Node4 -->
<g id="edge3_Node000001_Node000004" class="edge">
<title>Node1&#45;&gt;Node4</title>
<g id="a_edge3_Node000001_Node000004"><a xlink:title=" ">
<path fill="none" stroke="#63b8ff" d="M171.42,-46.48C155.77,-41.85 139.23,-36.97 124.08,-32.49"/>
<polygon fill="#63b8ff" stroke="#63b8ff" points="170.05,-49.72 180.63,-49.2 172.03,-43.01 170.05,-49.72"/>
</a>
</g>
</g>
</g>
</svg>
