<?xml version="1.0" encoding="UTF-8" standalone="no"?>
<!DOCTYPE svg PUBLIC "-//W3C//DTD SVG 1.1//EN"
 "http://www.w3.org/Graphics/SVG/1.1/DTD/svg11.dtd">
<!-- Generated by graphviz version 14.0.4 (20251115.1723)
 -->
<!-- Title: domain.product.Product.getBrand Pages: 1 -->
<svg width="315pt" height="90pt"
 viewBox="0.00 0.00 315.00 90.00" xmlns="http://www.w3.org/2000/svg" xmlns:xlink="http://www.w3.org/1999/xlink">
<g id="graph0" class="graph" transform="scale(1 1) rotate(0) translate(4 86)">
<title>domain.product.Product.getBrand</title>
<!-- Node1 -->
<g id="Node000001" class="node">
<title>Node1</title>
<g id="a_Node000001"><a xlink:title="Retourne la marque associée au produit.">
<polygon fill="#999999" stroke="#666666" points="306.5,-57 170.5,-57 170.5,-25 306.5,-25 306.5,-57"/>
<text xml:space="preserve" text-anchor="start" x="178.5" y="-43.5" font-family="Helvetica,sans-Serif" font-size="10.00">domain.product.Product.get</text>
<text xml:space="preserve" text-anchor="middle" x="238.5" y="-31.5" font-family="Helvetica,sans-Serif" font-size="10.00">Brand</text>
</a>
</g>
</g>
<!-- Node2 -->
<g id="Node000002" class="node">
<title>Node2</title>
<g id="a_Node000002"><a xlink:href="classapplication_1_1_add_product_use_case.html#a8701179ffffe5aa119971baeda93e31a" target="_top" xlink:title="Ajoute un produit au stock.">
<polygon fill="white" stroke="#666666" points="134.5,-82 0,-82 0,-50 134.5,-50 134.5,-82"/>
<text xml:space="preserve" text-anchor="start" x="8" y="-68.5" font-family="Helvetica,sans-Serif" font-size="10.00">application.AddProductUse</text>
<text xml:space="preserve" text-anchor="middle" x="67.25" y="-56.5" font-family="Helvetica,sans-Serif" font-size="10.00">Case.execute</text>
</a>
</g>
</g>
<!-- Node1&#45;&gt;Node2 -->
<g id="edge1_Node000001_Node000002" class="edge">
<title>Node1&#45;&gt;Node2</title>
<g id="a_edge1_Node000001_Node000002"><a xlink:title=" ">
<path fill="none" stroke="#63b8ff" d="M158.85,-52.62C150.82,-53.8 142.72,-55 134.84,-56.16"/>
<polygon fill="#63b8ff" stroke="#63b8ff" points="159.24,-56.1 168.62,-51.17 158.22,-49.17 159.24,-56.1"/>
</a>
</g>
</g>
<!-- Node3 -->
<g id="Node000003" class="node">
<title>Node3</title>
<g id="a_Node000003"><a xlink:href="classapplication_1_1_sell_product_use_case.html#a8c21a7819025a9d1c89fa189134fdfe3" target="_top" xlink:title="Exécute la vente d&#39;un produit en diminuant son stock.">
<polygon fill="white" stroke="#666666" points="134.12,-32 0.38,-32 0.38,0 134.12,0 134.12,-32"/>
<text xml:space="preserve" text-anchor="start" x="8.38" y="-18.5" font-family="Helvetica,sans-Serif" font-size="10.00">application.SellProductUse</text>
<text xml:space="preserve" text-anchor="middle" x="67.25" y="-6.5" font-family="Helvetica,sans-Serif" font-size="10.00">Case.execute</text>
</a>
</g>
</g>
<!-- Node1&#45;&gt;Node3 -->
<g id="edge2_Node000001_Node000003" class="edge">
<title>Node1&#45;&gt;Node3</title>
<g id="a_edge2_Node000001_Node000003"><a xlink:title=" ">
<path fill="none" stroke="#63b8ff" d="M158.76,-29.37C150.67,-28.17 142.51,-26.97 134.57,-25.8"/>
<polygon fill="#63b8ff" stroke="#63b8ff" points="158.22,-32.83 168.62,-30.83 159.24,-25.9 158.22,-32.83"/>
</a>
</g>
</g>
</g>
</svg>
