<?xml version="1.0" encoding="UTF-8" standalone="no"?>
<!DOCTYPE svg PUBLIC "-//W3C//DTD SVG 1.1//EN"
 "http://www.w3.org/Graphics/SVG/1.1/DTD/svg11.dtd">
<!-- Generated by graphviz version 14.0.4 (20251115.1723)
 -->
<!-- Title: domain.product.Product Pages: 1 -->
<svg width="304pt" height="96pt"
 viewBox="0.00 0.00 304.00 96.00" xmlns="http://www.w3.org/2000/svg" xmlns:xlink="http://www.w3.org/1999/xlink">
<g id="graph0" class="graph" transform="scale(1 1) rotate(0) translate(4 92)">
<title>domain.product.Product</title>
<!-- Node1 -->
<g id="Node000001" class="node">
<title>Node1</title>
<g id="a_Node000001"><a xlink:title="Représente un produit abstrait appartenant à un catalogue.">
<polygon fill="#999999" stroke="#666666" points="201.62,-88 82.12,-88 82.12,-68 201.62,-68 201.62,-88"/>
<text xml:space="preserve" text-anchor="middle" x="141.88" y="-74.5" font-family="Helvetica,sans-Serif" font-size="10.00">domain.product.Product</text>
</a>
</g>
</g>
<!-- Node2 -->
<g id="Node000002" class="node">
<title>Node2</title>
<g id="a_Node000002"><a xlink:href="classdomain_1_1product_1_1_container_product.html" target="_top" xlink:title="Représente un produit conteneur, c’est&#45;à&#45;dire un produit composé qui contient une certaine quantité d...">
<polygon fill="white" stroke="#666666" points="127.75,-32 0,-32 0,0 127.75,0 127.75,-32"/>
<text xml:space="preserve" text-anchor="start" x="8" y="-18.5" font-family="Helvetica,sans-Serif" font-size="10.00">domain.product.Container</text>
<text xml:space="preserve" text-anchor="middle" x="63.88" y="-6.5" font-family="Helvetica,sans-Serif" font-size="10.00">Product</text>
</a>
</g>
</g>
<!-- Node1&#45;&gt;Node2 -->
<g id="edge1_Node000001_Node000002" class="edge">
<title>Node1&#45;&gt;Node2</title>
<g id="a_edge1_Node000001_Node000002"><a xlink:title=" ">
<path fill="none" stroke="#63b8ff" d="M120.78,-60.78C109.3,-51.94 95.17,-41.07 83.86,-32.37"/>
<polygon fill="#63b8ff" stroke="#63b8ff" points="118.43,-63.38 128.49,-66.7 122.7,-57.83 118.43,-63.38"/>
</a>
</g>
</g>
<!-- Node3 -->
<g id="Node000003" class="node">
<title>Node3</title>
<g id="a_Node000003"><a xlink:href="classdomain_1_1product_1_1_simple_product.html" target="_top" xlink:title="Représente un produit simple du catalogue.">
<polygon fill="white" stroke="#666666" points="295.62,-26 146.12,-26 146.12,-6 295.62,-6 295.62,-26"/>
<text xml:space="preserve" text-anchor="middle" x="220.88" y="-12.5" font-family="Helvetica,sans-Serif" font-size="10.00">domain.product.SimpleProduct</text>
</a>
</g>
</g>
<!-- Node1&#45;&gt;Node3 -->
<g id="edge2_Node000001_Node000003" class="edge">
<title>Node1&#45;&gt;Node3</title>
<g id="a_edge2_Node000001_Node000003"><a xlink:title=" ">
<path fill="none" stroke="#63b8ff" d="M163.06,-60.91C177.64,-49.84 196.48,-35.53 208.62,-26.31"/>
<polygon fill="#63b8ff" stroke="#63b8ff" points="161.27,-57.87 155.42,-66.71 165.5,-63.45 161.27,-57.87"/>
</a>
</g>
</g>
</g>
</svg>
