<?xml version="1.0" encoding="UTF-8" standalone="no"?>
<!DOCTYPE svg PUBLIC "-//W3C//DTD SVG 1.1//EN"
 "http://www.w3.org/Graphics/SVG/1.1/DTD/svg11.dtd">
<!-- Generated by graphviz version 14.0.4 (20251115.1723)
 -->
<!-- Title: domain.product.Product.getPrice Pages: 1 -->
<svg width="484pt" height="140pt"
 viewBox="0.00 0.00 484.00 140.00" xmlns="http://www.w3.org/2000/svg" xmlns:xlink="http://www.w3.org/1999/xlink">
<g id="graph0" class="graph" transform="scale(1 1) rotate(0) translate(4 136)">
<title>domain.product.Product.getPrice</title>
<!-- Node1 -->
<g id="Node000001" class="node">
<title>Node1</title>
<g id="a_Node000001"><a xlink:title="Retourne le prix unitaire du produit.">
<polygon fill="#999999" stroke="#666666" points="476.25,-82 340.25,-82 340.25,-50 476.25,-50 476.25,-82"/>
<text xml:space="preserve" text-anchor="start" x="348.25" y="-68.5" font-family="Helvetica,sans-Serif" font-size="10.00">domain.product.Product.get</text>
<text xml:space="preserve" text-anchor="middle" x="408.25" y="-56.5" font-family="Helvetica,sans-Serif" font-size="10.00">Price</text>
</a>
</g>
</g>
<!-- Node2 -->
<g id="Node000002" class="node">
<title>Node2</title>
<g id="a_Node000002"><a xlink:href="classapplication_1_1_add_product_use_case.html#a8701179ffffe5aa119971baeda93e31a" target="_top" xlink:title="Ajoute un produit au stock.">
<polygon fill="white" stroke="#666666" points="304.25,-132 169.75,-132 169.75,-100 304.25,-100 304.25,-132"/>
<text xml:space="preserve" text-anchor="start" x="177.75" y="-118.5" font-family="Helvetica,sans-Serif" font-size="10.00">application.AddProductUse</text>
<text xml:space="preserve" text-anchor="middle" x="237" y="-106.5" font-family="Helvetica,sans-Serif" font-size="10.00">Case.execute</text>
</a>
</g>
</g>
<!-- Node1&#45;&gt;Node2 -->
<g id="edge1_Node000001_Node000002" class="edge">
<title>Node1&#45;&gt;Node2</title>
<g id="a_edge1_Node000001_Node000002"><a xlink:title=" ">
<path fill="none" stroke="#63b8ff" d="M341.17,-85.52C325.52,-90.15 308.98,-95.03 293.83,-99.51"/>
<polygon fill="#63b8ff" stroke="#63b8ff" points="341.78,-88.99 350.38,-82.8 339.8,-82.28 341.78,-88.99"/>
</a>
</g>
</g>
<!-- Node3 -->
<g id="Node000003" class="node">
<title>Node3</title>
<g id="a_Node000003"><a xlink:href="classapplication_1_1_sell_product_use_case.html#a2a847baa6340d8bcd718693590f53fdf" target="_top" xlink:title="TP2 : Exécute une vente de type panier (max 3 articles).">
<polygon fill="white" stroke="#666666" points="303.88,-82 170.12,-82 170.12,-50 303.88,-50 303.88,-82"/>
<text xml:space="preserve" text-anchor="start" x="178.12" y="-68.5" font-family="Helvetica,sans-Serif" font-size="10.00">application.SellProductUse</text>
<text xml:space="preserve" text-anchor="middle" x="237" y="-56.5" font-family="Helvetica,sans-Serif" font-size="10.00">Case.executeCart</text>
</a>
</g>
</g>
<!-- Node1&#45;&gt;Node3 -->
<g id="edge2_Node000001_Node000003" class="edge">
<title>Node1&#45;&gt;Node3</title>
<g id="a_edge2_Node000001_Node000003"><a xlink:title=" ">
<path fill="none" stroke="#63b8ff" d="M328.51,-66C320.42,-66 312.26,-66 304.32,-66"/>
<polygon fill="#63b8ff" stroke="#63b8ff" points="328.36,-69.5 338.36,-66 328.36,-62.5 328.36,-69.5"/>
</a>
</g>
</g>
<!-- Node5 -->
<g id="Node000005" class="node">
<title>Node5</title>
<g id="a_Node000005"><a xlink:href="classapplication_1_1_sort_products_use_case.html#a50450d2e8f7304e5fc6ce38bee0efdce" target="_top" xlink:title="Trie les produits en mémoire par prix croissant.">
<polygon fill="white" stroke="#666666" points="298.25,-32 175.75,-32 175.75,0 298.25,0 298.25,-32"/>
<text xml:space="preserve" text-anchor="start" x="183.75" y="-18.5" font-family="Helvetica,sans-Serif" font-size="10.00">application.SortProducts</text>
<text xml:space="preserve" text-anchor="middle" x="237" y="-6.5" font-family="Helvetica,sans-Serif" font-size="10.00">UseCase.sortByPrice</text>
</a>
</g>
</g>
<!-- Node1&#45;&gt;Node5 -->
<g id="edge4_Node000001_Node000005" class="edge">
<title>Node1&#45;&gt;Node5</title>
<g id="a_edge4_Node000001_Node000005"><a xlink:title=" ">
<path fill="none" stroke="#63b8ff" d="M341.17,-46.48C325.52,-41.85 308.98,-36.97 293.83,-32.49"/>
<polygon fill="#63b8ff" stroke="#63b8ff" points="339.8,-49.72 350.38,-49.2 341.78,-43.01 339.8,-49.72"/>
</a>
</g>
</g>
<!-- Node4 -->
<g id="Node000004" class="node">
<title>Node4</title>
<g id="a_Node000004"><a xlink:href="classapplication_1_1_sell_product_use_case.html#a8c21a7819025a9d1c89fa189134fdfe3" target="_top" xlink:title="Compatibilité TP1 : vend un seul produit (ancienne signature).">
<polygon fill="white" stroke="#666666" points="133.75,-82 0,-82 0,-50 133.75,-50 133.75,-82"/>
<text xml:space="preserve" text-anchor="start" x="8" y="-68.5" font-family="Helvetica,sans-Serif" font-size="10.00">application.SellProductUse</text>
<text xml:space="preserve" text-anchor="middle" x="66.88" y="-56.5" font-family="Helvetica,sans-Serif" font-size="10.00">Case.execute</text>
</a>
</g>
</g>
<!-- Node3&#45;&gt;Node4 -->
<g id="edge3_Node000003_Node000004" class="edge">
<title>Node3&#45;&gt;Node4</title>
<g id="a_edge3_Node000003_Node000004"><a xlink:title=" ">
<path fill="none" stroke="#63b8ff" d="M158.6,-66C150.45,-66 142.21,-66 134.2,-66"/>
<polygon fill="#63b8ff" stroke="#63b8ff" points="158.52,-69.5 168.52,-66 158.52,-62.5 158.52,-69.5"/>
</a>
</g>
</g>
</g>
</svg>
