<?xml version="1.0" encoding="UTF-8" standalone="no"?>
<!DOCTYPE svg PUBLIC "-//W3C//DTD SVG 1.1//EN"
 "http://www.w3.org/Graphics/SVG/1.1/DTD/svg11.dtd">
<!-- Generated by graphviz version 14.0.4 (20251115.1723)
 -->
<!-- Title: application.SellProductUseCase.execute Pages: 1 -->
<svg width="340pt" height="278pt"
 viewBox="0.00 0.00 340.00 278.00" xmlns="http://www.w3.org/2000/svg" xmlns:xlink="http://www.w3.org/1999/xlink">
<g id="graph0" class="graph" transform="scale(1 1) rotate(0) translate(4 274)">
<title>application.SellProductUseCase.execute</title>
<!-- Node1 -->
<g id="Node000001" class="node">
<title>Node1</title>
<g id="a_Node000001"><a xlink:title="Exécute la vente d&#39;un produit en diminuant son stock.">
<polygon fill="#999999" stroke="#666666" points="133.75,-157 0,-157 0,-125 133.75,-125 133.75,-157"/>
<text xml:space="preserve" text-anchor="start" x="8" y="-143.5" font-family="Helvetica,sans-Serif" font-size="10.00">application.SellProductUse</text>
<text xml:space="preserve" text-anchor="middle" x="66.88" y="-131.5" font-family="Helvetica,sans-Serif" font-size="10.00">Case.execute</text>
</a>
</g>
</g>
<!-- Node2 -->
<g id="Node000002" class="node">
<title>Node2</title>
<g id="a_Node000002"><a xlink:href="classdomain_1_1product_1_1_product.html#a3f989b7cd47b684e15163909681fbba1" target="_top" xlink:title="Retourne la marque associée au produit.">
<polygon fill="white" stroke="#666666" points="318.88,-270 182.88,-270 182.88,-238 318.88,-238 318.88,-270"/>
<text xml:space="preserve" text-anchor="start" x="190.88" y="-256.5" font-family="Helvetica,sans-Serif" font-size="10.00">domain.product.Product.get</text>
<text xml:space="preserve" text-anchor="middle" x="250.88" y="-244.5" font-family="Helvetica,sans-Serif" font-size="10.00">Brand</text>
</a>
</g>
</g>
<!-- Node1&#45;&gt;Node2 -->
<g id="edge1_Node000001_Node000002" class="edge">
<title>Node1&#45;&gt;Node2</title>
<g id="a_edge1_Node000001_Node000002"><a xlink:title=" ">
<path fill="none" stroke="#63b8ff" d="M82.56,-157.24C101.1,-176.84 134.82,-209.58 169.75,-229 172.26,-230.39 174.85,-231.72 177.51,-232.98"/>
<polygon fill="#63b8ff" stroke="#63b8ff" points="176.03,-236.16 186.6,-236.94 178.82,-229.74 176.03,-236.16"/>
</a>
</g>
</g>
<!-- Node3 -->
<g id="Node000003" class="node">
<title>Node3</title>
<g id="a_Node000003"><a xlink:href="classdomain_1_1product_1_1_product.html#a2b5d35bdc181ae4aadd9dc21188ca8d8" target="_top" xlink:title="Retourne le nom du produit.">
<polygon fill="white" stroke="#666666" points="332,-220 169.75,-220 169.75,-200 332,-200 332,-220"/>
<text xml:space="preserve" text-anchor="middle" x="250.88" y="-206.5" font-family="Helvetica,sans-Serif" font-size="10.00">domain.product.Product.getName</text>
</a>
</g>
</g>
<!-- Node1&#45;&gt;Node3 -->
<g id="edge2_Node000001_Node000003" class="edge">
<title>Node1&#45;&gt;Node3</title>
<g id="a_edge2_Node000001_Node000003"><a xlink:title=" ">
<path fill="none" stroke="#63b8ff" d="M96.98,-157.46C116.95,-168.2 144.34,-181.88 169.75,-191 175.38,-193.02 181.32,-194.89 187.31,-196.6"/>
<polygon fill="#63b8ff" stroke="#63b8ff" points="186.06,-199.89 196.62,-199.12 187.88,-193.13 186.06,-199.89"/>
</a>
</g>
</g>
<!-- Node4 -->
<g id="Node000004" class="node">
<title>Node4</title>
<g id="a_Node000004"><a xlink:href="classdomain_1_1product_1_1_product.html#ab7dba8b7fa7529e93f867ab7ce7edfda" target="_top" xlink:title="Retourne le prix unitaire du produit.">
<polygon fill="white" stroke="#666666" points="318.88,-182 182.88,-182 182.88,-150 318.88,-150 318.88,-182"/>
<text xml:space="preserve" text-anchor="start" x="190.88" y="-168.5" font-family="Helvetica,sans-Serif" font-size="10.00">domain.product.Product.get</text>
<text xml:space="preserve" text-anchor="middle" x="250.88" y="-156.5" font-family="Helvetica,sans-Serif" font-size="10.00">Price</text>
</a>
</g>
</g>
<!-- Node1&#45;&gt;Node4 -->
<g id="edge3_Node000001_Node000004" class="edge">
<title>Node1&#45;&gt;Node4</title>
<g id="a_edge3_Node000001_Node000004"><a xlink:title=" ">
<path fill="none" stroke="#63b8ff" d="M134.1,-150.1C146.16,-151.75 158.85,-153.5 171.23,-155.2"/>
<polygon fill="#63b8ff" stroke="#63b8ff" points="170.6,-158.64 180.98,-156.54 171.55,-151.71 170.6,-158.64"/>
</a>
</g>
</g>
<!-- Node5 -->
<g id="Node000005" class="node">
<title>Node5</title>
<g id="a_Node000005"><a xlink:href="classdomain_1_1product_1_1_product.html#a02adba4533632f33c0f62dca8592a920" target="_top" xlink:title="Retourne l&#39;identifiant unique du produit.">
<polygon fill="white" stroke="#666666" points="318.88,-132 182.88,-132 182.88,-100 318.88,-100 318.88,-132"/>
<text xml:space="preserve" text-anchor="start" x="190.88" y="-118.5" font-family="Helvetica,sans-Serif" font-size="10.00">domain.product.Product.get</text>
<text xml:space="preserve" text-anchor="middle" x="250.88" y="-106.5" font-family="Helvetica,sans-Serif" font-size="10.00">ProductId</text>
</a>
</g>
</g>
<!-- Node1&#45;&gt;Node5 -->
<g id="edge4_Node000001_Node000005" class="edge">
<title>Node1&#45;&gt;Node5</title>
<g id="a_edge4_Node000001_Node000005"><a xlink:title=" ">
<path fill="none" stroke="#63b8ff" d="M134.1,-131.9C146.16,-130.25 158.85,-128.5 171.23,-126.8"/>
<polygon fill="#63b8ff" stroke="#63b8ff" points="171.55,-130.29 180.98,-125.46 170.6,-123.36 171.55,-130.29"/>
</a>
</g>
</g>
<!-- Node6 -->
<g id="Node000006" class="node">
<title>Node6</title>
<g id="a_Node000006"><a xlink:href="classdomain_1_1product_1_1_product.html#a82233b1106551cfa6313ad31342859bc" target="_top" xlink:title="Retourne la gamme à laquelle appartient le produit.">
<polygon fill="white" stroke="#666666" points="318.88,-82 182.88,-82 182.88,-50 318.88,-50 318.88,-82"/>
<text xml:space="preserve" text-anchor="start" x="190.88" y="-68.5" font-family="Helvetica,sans-Serif" font-size="10.00">domain.product.Product.get</text>
<text xml:space="preserve" text-anchor="middle" x="250.88" y="-56.5" font-family="Helvetica,sans-Serif" font-size="10.00">ProductLine</text>
</a>
</g>
</g>
<!-- Node1&#45;&gt;Node6 -->
<g id="edge5_Node000001_Node000006" class="edge">
<title>Node1&#45;&gt;Node6</title>
<g id="a_edge5_Node000001_Node000006"><a xlink:title=" ">
<path fill="none" stroke="#63b8ff" d="M98.08,-124.65C118.06,-114.22 145.04,-100.85 169.75,-91 174.01,-89.3 178.44,-87.64 182.93,-86.04"/>
<polygon fill="#63b8ff" stroke="#63b8ff" points="183.71,-89.47 192.02,-82.9 181.43,-82.85 183.71,-89.47"/>
</a>
</g>
</g>
<!-- Node7 -->
<g id="Node000007" class="node">
<title>Node7</title>
<g id="a_Node000007"><a xlink:href="classdomain_1_1product_1_1_product.html#a63b4a0867feb6d8761be628c80951046" target="_top" xlink:title="Retourne la quantité en stock.">
<polygon fill="white" stroke="#666666" points="318.88,-32 182.88,-32 182.88,0 318.88,0 318.88,-32"/>
<text xml:space="preserve" text-anchor="start" x="190.88" y="-18.5" font-family="Helvetica,sans-Serif" font-size="10.00">domain.product.Product.get</text>
<text xml:space="preserve" text-anchor="middle" x="250.88" y="-6.5" font-family="Helvetica,sans-Serif" font-size="10.00">Stock</text>
</a>
</g>
</g>
<!-- Node1&#45;&gt;Node7 -->
<g id="edge6_Node000001_Node000007" class="edge">
<title>Node1&#45;&gt;Node7</title>
<g id="a_edge6_Node000001_Node000007"><a xlink:title=" ">
<path fill="none" stroke="#63b8ff" d="M80.24,-124.74C97.82,-102.71 132.11,-63.53 169.75,-41 171.93,-39.69 174.19,-38.45 176.51,-37.26"/>
<polygon fill="#63b8ff" stroke="#63b8ff" points="177.96,-40.45 185.57,-33.07 175.02,-34.09 177.96,-40.45"/>
</a>
</g>
</g>
</g>
</svg>
