<?xml version="1.0" encoding="UTF-8" standalone="no"?>
<!DOCTYPE svg PUBLIC "-//W3C//DTD SVG 1.1//EN"
 "http://www.w3.org/Graphics/SVG/1.1/DTD/svg11.dtd">
<!-- Generated by graphviz version 14.0.4 (20251115.1723)
 -->
<!-- Title: domain.product.Product.getName Pages: 1 -->
<svg width="511pt" height="90pt"
 viewBox="0.00 0.00 511.00 90.00" xmlns="http://www.w3.org/2000/svg" xmlns:xlink="http://www.w3.org/1999/xlink">
<g id="graph0" class="graph" transform="scale(1 1) rotate(0) translate(4 86)">
<title>domain.product.Product.getName</title>
<!-- Node1 -->
<g id="Node000001" class="node">
<title>Node1</title>
<g id="a_Node000001"><a xlink:title="Retourne le nom du produit.">
<polygon fill="#999999" stroke="#666666" points="502.5,-51 340.25,-51 340.25,-31 502.5,-31 502.5,-51"/>
<text xml:space="preserve" text-anchor="middle" x="421.38" y="-37.5" font-family="Helvetica,sans-Serif" font-size="10.00">domain.product.Product.getName</text>
</a>
</g>
</g>
<!-- Node2 -->
<g id="Node000002" class="node">
<title>Node2</title>
<g id="a_Node000002"><a xlink:href="classapplication_1_1_add_product_use_case.html#a8701179ffffe5aa119971baeda93e31a" target="_top" xlink:title="Ajoute un produit au stock.">
<polygon fill="white" stroke="#666666" points="304.25,-82 169.75,-82 169.75,-50 304.25,-50 304.25,-82"/>
<text xml:space="preserve" text-anchor="start" x="177.75" y="-68.5" font-family="Helvetica,sans-Serif" font-size="10.00">application.AddProductUse</text>
<text xml:space="preserve" text-anchor="middle" x="237" y="-56.5" font-family="Helvetica,sans-Serif" font-size="10.00">Case.execute</text>
</a>
</g>
</g>
<!-- Node1&#45;&gt;Node2 -->
<g id="edge1_Node000001_Node000002" class="edge">
<title>Node1&#45;&gt;Node2</title>
<g id="a_edge1_Node000001_Node000002"><a xlink:title=" ">
<path fill="none" stroke="#63b8ff" d="M332.42,-53.06C323.03,-54.34 313.6,-55.64 304.51,-56.88"/>
<polygon fill="#63b8ff" stroke="#63b8ff" points="332.89,-56.52 342.32,-51.7 331.94,-49.59 332.89,-56.52"/>
</a>
</g>
</g>
<!-- Node3 -->
<g id="Node000003" class="node">
<title>Node3</title>
<g id="a_Node000003"><a xlink:href="classapplication_1_1_sell_product_use_case.html#a2a847baa6340d8bcd718693590f53fdf" target="_top" xlink:title="TP2 : Exécute une vente de type panier (max 3 articles).">
<polygon fill="white" stroke="#666666" points="303.88,-32 170.12,-32 170.12,0 303.88,0 303.88,-32"/>
<text xml:space="preserve" text-anchor="start" x="178.12" y="-18.5" font-family="Helvetica,sans-Serif" font-size="10.00">application.SellProductUse</text>
<text xml:space="preserve" text-anchor="middle" x="237" y="-6.5" font-family="Helvetica,sans-Serif" font-size="10.00">Case.executeCart</text>
</a>
</g>
</g>
<!-- Node1&#45;&gt;Node3 -->
<g id="edge2_Node000001_Node000003" class="edge">
<title>Node1&#45;&gt;Node3</title>
<g id="a_edge2_Node000001_Node000003"><a xlink:title=" ">
<path fill="none" stroke="#63b8ff" d="M332.65,-28.97C323.08,-27.66 313.47,-26.35 304.23,-25.08"/>
<polygon fill="#63b8ff" stroke="#63b8ff" points="331.94,-32.41 342.32,-30.3 332.89,-25.48 331.94,-32.41"/>
</a>
</g>
</g>
<!-- Node4 -->
<g id="Node000004" class="node">
<title>Node4</title>
<g id="a_Node000004"><a xlink:href="classapplication_1_1_sell_product_use_case.html#a8c21a7819025a9d1c89fa189134fdfe3" target="_top" xlink:title="Compatibilité TP1 : vend un seul produit (ancienne signature).">
<polygon fill="white" stroke="#666666" points="133.75,-32 0,-32 0,0 133.75,0 133.75,-32"/>
<text xml:space="preserve" text-anchor="start" x="8" y="-18.5" font-family="Helvetica,sans-Serif" font-size="10.00">application.SellProductUse</text>
<text xml:space="preserve" text-anchor="middle" x="66.88" y="-6.5" font-family="Helvetica,sans-Serif" font-size="10.00">Case.execute</text>
</a>
</g>
</g>
<!-- Node3&#45;&gt;Node4 -->
<g id="edge3_Node000003_Node000004" class="edge">
<title>Node3&#45;&gt;Node4</title>
<g id="a_edge3_Node000003_Node000004"><a xlink:title=" ">
<path fill="none" stroke="#63b8ff" d="M158.6,-16C150.45,-16 142.21,-16 134.2,-16"/>
<polygon fill="#63b8ff" stroke="#63b8ff" points="158.52,-19.5 168.52,-16 158.52,-12.5 158.52,-19.5"/>
</a>
</g>
</g>
</g>
</svg>
