<?xml version="1.0" encoding="UTF-8" standalone="no"?>
<!DOCTYPE svg PUBLIC "-//W3C//DTD SVG 1.1//EN"
 "http://www.w3.org/Graphics/SVG/1.1/DTD/svg11.dtd">
<!-- Generated by graphviz version 14.0.4 (20251115.1723)
 -->
<!-- Title: application.SellProductUseCase.execute Pages: 1 -->
<svg width="510pt" height="128pt"
 viewBox="0.00 0.00 510.00 128.00" xmlns="http://www.w3.org/2000/svg" xmlns:xlink="http://www.w3.org/1999/xlink">
<g id="graph0" class="graph" transform="scale(1 1) rotate(0) translate(4 124)">
<title>application.SellProductUseCase.execute</title>
<!-- Node1 -->
<g id="Node000001" class="node">
<title>Node1</title>
<g id="a_Node000001"><a xlink:title="Compatibilité TP1 : vend un seul produit (ancienne signature).">
<polygon fill="#999999" stroke="#666666" points="133.75,-82 0,-82 0,-50 133.75,-50 133.75,-82"/>
<text xml:space="preserve" text-anchor="start" x="8" y="-68.5" font-family="Helvetica,sans-Serif" font-size="10.00">application.SellProductUse</text>
<text xml:space="preserve" text-anchor="middle" x="66.88" y="-56.5" font-family="Helvetica,sans-Serif" font-size="10.00">Case.execute</text>
</a>
</g>
</g>
<!-- Node2 -->
<g id="Node000002" class="node">
<title>Node2</title>
<g id="a_Node000002"><a xlink:href="classapplication_1_1_sell_product_use_case.html#a2a847baa6340d8bcd718693590f53fdf" target="_top" xlink:title="TP2 : Exécute une vente de type panier (max 3 articles).">
<polygon fill="white" stroke="#666666" points="303.5,-82 169.75,-82 169.75,-50 303.5,-50 303.5,-82"/>
<text xml:space="preserve" text-anchor="start" x="177.75" y="-68.5" font-family="Helvetica,sans-Serif" font-size="10.00">application.SellProductUse</text>
<text xml:space="preserve" text-anchor="middle" x="236.62" y="-56.5" font-family="Helvetica,sans-Serif" font-size="10.00">Case.executeCart</text>
</a>
</g>
</g>
<!-- Node1&#45;&gt;Node2 -->
<g id="edge1_Node000001_Node000002" class="edge">
<title>Node1&#45;&gt;Node2</title>
<g id="a_edge1_Node000001_Node000002"><a xlink:title=" ">
<path fill="none" stroke="#63b8ff" d="M134.17,-66C141.93,-66 149.89,-66 157.78,-66"/>
<polygon fill="#63b8ff" stroke="#63b8ff" points="157.74,-69.5 167.74,-66 157.74,-62.5 157.74,-69.5"/>
</a>
</g>
</g>
<!-- Node3 -->
<g id="Node000003" class="node">
<title>Node3</title>
<g id="a_Node000003"><a xlink:href="classdomain_1_1product_1_1_product.html#a2b5d35bdc181ae4aadd9dc21188ca8d8" target="_top" xlink:title="Retourne le nom du produit.">
<polygon fill="white" stroke="#666666" points="501.75,-120 339.5,-120 339.5,-100 501.75,-100 501.75,-120"/>
<text xml:space="preserve" text-anchor="middle" x="420.62" y="-106.5" font-family="Helvetica,sans-Serif" font-size="10.00">domain.product.Product.getName</text>
</a>
</g>
</g>
<!-- Node2&#45;&gt;Node3 -->
<g id="edge2_Node000002_Node000003" class="edge">
<title>Node2&#45;&gt;Node3</title>
<g id="a_edge2_Node000002_Node000003"><a xlink:title=" ">
<path fill="none" stroke="#63b8ff" d="M303.92,-82.35C315.76,-85.25 327.99,-88.22 339.5,-91 347.43,-92.91 355.81,-94.92 364.04,-96.88"/>
<polygon fill="#63b8ff" stroke="#63b8ff" points="363.1,-100.25 373.64,-99.16 364.72,-93.44 363.1,-100.25"/>
</a>
</g>
</g>
<!-- Node4 -->
<g id="Node000004" class="node">
<title>Node4</title>
<g id="a_Node000004"><a xlink:href="classdomain_1_1product_1_1_product.html#ab7dba8b7fa7529e93f867ab7ce7edfda" target="_top" xlink:title="Retourne le prix unitaire du produit.">
<polygon fill="white" stroke="#666666" points="488.62,-82 352.62,-82 352.62,-50 488.62,-50 488.62,-82"/>
<text xml:space="preserve" text-anchor="start" x="360.62" y="-68.5" font-family="Helvetica,sans-Serif" font-size="10.00">domain.product.Product.get</text>
<text xml:space="preserve" text-anchor="middle" x="420.62" y="-56.5" font-family="Helvetica,sans-Serif" font-size="10.00">Price</text>
</a>
</g>
</g>
<!-- Node2&#45;&gt;Node4 -->
<g id="edge3_Node000002_Node000004" class="edge">
<title>Node2&#45;&gt;Node4</title>
<g id="a_edge3_Node000002_Node000004"><a xlink:title=" ">
<path fill="none" stroke="#63b8ff" d="M303.85,-66C315.91,-66 328.6,-66 340.98,-66"/>
<polygon fill="#63b8ff" stroke="#63b8ff" points="340.72,-69.5 350.72,-66 340.72,-62.5 340.72,-69.5"/>
</a>
</g>
</g>
<!-- Node5 -->
<g id="Node000005" class="node">
<title>Node5</title>
<g id="a_Node000005"><a xlink:href="classdomain_1_1product_1_1_product.html#a63b4a0867feb6d8761be628c80951046" target="_top" xlink:title="Retourne la quantité en stock.">
<polygon fill="white" stroke="#666666" points="488.62,-32 352.62,-32 352.62,0 488.62,0 488.62,-32"/>
<text xml:space="preserve" text-anchor="start" x="360.62" y="-18.5" font-family="Helvetica,sans-Serif" font-size="10.00">domain.product.Product.get</text>
<text xml:space="preserve" text-anchor="middle" x="420.62" y="-6.5" font-family="Helvetica,sans-Serif" font-size="10.00">Stock</text>
</a>
</g>
</g>
<!-- Node2&#45;&gt;Node5 -->
<g id="edge4_Node000002_Node000005" class="edge">
<title>Node2&#45;&gt;Node5</title>
<g id="a_edge4_Node000002_Node000005"><a xlink:title=" ">
<path fill="none" stroke="#63b8ff" d="M297.47,-49.56C313.87,-45.05 331.81,-40.12 348.77,-35.47"/>
<polygon fill="#63b8ff" stroke="#63b8ff" points="349.57,-38.88 358.28,-32.85 347.71,-32.13 349.57,-38.88"/>
</a>
</g>
</g>
</g>
</svg>
