<?xml version="1.0" encoding="UTF-8" standalone="no"?>
<!DOCTYPE svg PUBLIC "-//W3C//DTD SVG 1.1//EN"
 "http://www.w3.org/Graphics/SVG/1.1/DTD/svg11.dtd">
<!-- Generated by graphviz version 14.0.4 (20251115.1723)
 -->
<!-- Title: Graphe hiérarchique des classes Pages: 1 -->
<svg width="313pt" height="78pt"
 viewBox="0.00 0.00 313.00 78.00" xmlns="http://www.w3.org/2000/svg" xmlns:xlink="http://www.w3.org/1999/xlink">
<g id="graph0" class="graph" transform="scale(1 1) rotate(0) translate(4 74)">
<title>Graphe hiérarchique des classes</title>
<!-- Node0 -->
<g id="Node000000" class="node">
<title>Node0</title>
<g id="a_Node000000"><a xlink:href="classdomain_1_1product_1_1_product.html" target="_top" xlink:title="Représente un produit abstrait appartenant à un catalogue.">
<polygon fill="white" stroke="#666666" points="119.5,-42 0,-42 0,-22 119.5,-22 119.5,-42"/>
<text xml:space="preserve" text-anchor="middle" x="59.75" y="-28.5" font-family="Helvetica,sans-Serif" font-size="10.00">domain.product.Product</text>
</a>
</g>
</g>
<!-- Node1 -->
<g id="Node000001" class="node">
<title>Node1</title>
<g id="a_Node000001"><a xlink:href="classdomain_1_1product_1_1_container_product.html" target="_top" xlink:title="Représente un produit conteneur, c’est&#45;à&#45;dire un produit composé qui contient une certaine quantité d...">
<polygon fill="white" stroke="#666666" points="294.12,-70 166.38,-70 166.38,-38 294.12,-38 294.12,-70"/>
<text xml:space="preserve" text-anchor="start" x="174.38" y="-56.5" font-family="Helvetica,sans-Serif" font-size="10.00">domain.product.Container</text>
<text xml:space="preserve" text-anchor="middle" x="230.25" y="-44.5" font-family="Helvetica,sans-Serif" font-size="10.00">Product</text>
</a>
</g>
</g>
<!-- Node0&#45;&gt;Node1 -->
<g id="edge2_Node000000_Node000001" class="edge">
<title>Node0&#45;&gt;Node1</title>
<g id="a_edge2_Node000000_Node000001"><a xlink:title=" ">
<path fill="none" stroke="#63b8ff" d="M130.75,-41.14C142.45,-42.67 154.53,-44.24 166.05,-45.75"/>
<polygon fill="#63b8ff" stroke="#63b8ff" points="131.55,-37.71 121.18,-39.89 130.65,-44.66 131.55,-37.71"/>
</a>
</g>
</g>
<!-- Node2 -->
<g id="Node000002" class="node">
<title>Node2</title>
<g id="a_Node000002"><a xlink:href="classdomain_1_1product_1_1_simple_product.html" target="_top" xlink:title="Représente un produit simple du catalogue.">
<polygon fill="white" stroke="#666666" points="305,-20 155.5,-20 155.5,0 305,0 305,-20"/>
<text xml:space="preserve" text-anchor="middle" x="230.25" y="-6.5" font-family="Helvetica,sans-Serif" font-size="10.00">domain.product.SimpleProduct</text>
</a>
</g>
</g>
<!-- Node0&#45;&gt;Node2 -->
<g id="edge3_Node000000_Node000002" class="edge">
<title>Node0&#45;&gt;Node2</title>
<g id="a_edge3_Node000000_Node000002"><a xlink:title=" ">
<path fill="none" stroke="#63b8ff" d="M130.9,-22.84C138.94,-21.79 147.15,-20.72 155.24,-19.66"/>
<polygon fill="#63b8ff" stroke="#63b8ff" points="130.65,-19.34 121.18,-24.11 131.55,-26.29 130.65,-19.34"/>
</a>
</g>
</g>
</g>
</svg>
